<?xml version="1.0" standalone="no"?>
<!DOCTYPE svg PUBLIC "-//W3C//DTD SVG 1.1//EN" "http://www.w3.org/Graphics/SVG/1.1/DTD/svg11.dtd" >
<!--
2017-7-26: Created with FontForge (http://fontforge.org)
-->
<svg xmlns="http://www.w3.org/2000/svg" xmlns:xlink="http://www.w3.org/1999/xlink" version="1.1">
<metadata>
Created by FontForge 20170718 at Wed Jul 26 20:16:28 2017
 By 朱翀宇
Copyright (c) 2017, &#230;&#156;&#177;&#231;&#191;&#128;&#229;&#174;&#135;
</metadata>
<defs>
<font id="Ionicons" horiz-adv-x="448" >
  <font-face 
    font-family="Ionicons"
    font-weight="400"
    font-stretch="normal"
    units-per-em="512"
    panose-1="2 0 5 3 0 0 0 0 0 0"
    ascent="448"
    descent="-64"
    bbox="-0.5 -64 512 448"
    underline-thickness="25.6"
    underline-position="-51.2"
    unicode-range="U+F100-F4F5"
  />
    <missing-glyph />
    <glyph glyph-name="ion-alert-circled" unicode="&#xf100;" 
d="M445 26c3 -5 5 -13 2 -18s-8 -8 -14 -8h-418c-6 0 -11 3 -14 8s-1 13 2 18l207 349c3 5 8 9 14 9s11 -4 14 -9zM256 48v48h-64v-48h64zM256 128v144h-64v-144h64z" />
    <glyph glyph-name="ion-alert" unicode="&#xf101;" horiz-adv-x="128" 
d="M128 -32h-128v96h128v-96zM112 128h-96l-16 288h128z" />
    <glyph glyph-name="ion-android-add" unicode="&#xf2c7;" horiz-adv-x="320" 
d="M320 171h-139v-139h-42v139h-139v42h139v139h42v-139h139v-42z" />
    <glyph glyph-name="ion-android-alert" unicode="&#xf35b;" horiz-adv-x="416" 
d="M208 400c114 0 208 -94 208 -208s-94 -208 -208 -208s-208 94 -208 208s94 208 208 208zM232 88v40h-48v-40h48zM232 176v128h-48v-128h48z" />
    <glyph glyph-name="ion-android-arrow-dropdown-circle" unicode="&#xf35e;" horiz-adv-x="416" 
d="M208 400c115 0 208 -93 208 -208s-93 -208 -208 -208s-208 93 -208 208s93 208 208 208zM208 128l96 96h-192z" />
    <glyph glyph-name="ion-android-arrow-dropleft-circle" unicode="&#xf360;" horiz-adv-x="416" 
d="M416 192c0 -115 -93 -208 -208 -208s-208 93 -208 208s93 208 208 208s208 -93 208 -208zM144 192l96 -96v192z" />
    <glyph glyph-name="ion-android-arrow-dropright-circle" unicode="&#xf362;" horiz-adv-x="416" 
d="M208 -16c-115 0 -208 93 -208 208s93 208 208 208s208 -93 208 -208s-93 -208 -208 -208zM176 96l96 96l-96 96v-192z" />
    <glyph glyph-name="ion-android-arrow-dropup-circle" unicode="&#xf364;" horiz-adv-x="416" 
d="M416 192c0 -115 -93 -208 -208 -208s-208 93 -208 208s93 208 208 208s208 -93 208 -208zM304 160l-96 96l-96 -96h192z" />
    <glyph glyph-name="ion-android-close" unicode="&#xf2d7;" horiz-adv-x="298" 
d="M298 311l-119 -119l119 -119l-30 -30l-119 119l-119 -119l-30 30l119 119l-119 119l30 30l119 -119l119 119z" />
    <glyph glyph-name="ion-android-done-all" unicode="&#xf382;" horiz-adv-x="512" 
d="M388 308l-140 -139l-31 31l140 139zM481 339l31 -31l-264 -263l-122 123l30 31l92 -91zM0 168l32 31l122 -123l-31 -31z" />
    <glyph glyph-name="ion-android-done" unicode="&#xf383;" horiz-adv-x="384" 
d="M122 108l230 230l32 -31l-262 -261l-122 122l32 31z" />
    <glyph glyph-name="ion-android-remove" unicode="&#xf2f4;" horiz-adv-x="320" 
d="M0 171v42h320v-42h-320z" />
    <glyph glyph-name="ion-aperture" unicode="&#xf313;" 
d="M224 416c124 0 224 -100 224 -224s-100 -224 -224 -224s-224 100 -224 224s100 224 224 224zM360 56c36 36 56 85 56 136s-20 100 -56 136s-85 56 -136 56s-100 -20 -136 -56s-56 -85 -56 -136s20 -100 56 -136s85 -56 136 -56s100 20 136 56zM168 342l56 -86h-147
c17 40 50 71 91 86zM381 160h-102l72 129c21 -27 33 -60 33 -97c0 -11 -1 -22 -3 -32zM328 314l-49 -90l-78 126c8 1 15 2 23 2c40 0 76 -14 104 -38zM67 224h102l-72 -129c-21 27 -33 60 -33 97c0 11 1 22 3 32zM280 42l-56 86h147c-17 -40 -50 -71 -91 -86zM120 70l49 90
l78 -126c-8 -1 -15 -2 -23 -2c-40 0 -76 14 -104 38z" />
    <glyph glyph-name="ion-archive" unicode="&#xf102;" 
d="M224 140l-128 116h80v96h96v-96h80zM433 151c11 -6 17 -19 15 -32l-9 -67c-2 -13 -9 -20 -28 -20h-374c-18 0 -26 7 -28 20l-9 67c-2 13 3 26 14 32l72 55h42l-62 -62h50c2 0 5 -1 6 -3l18 -45h168l18 45c1 2 3 3 5 3h51l-62 62h42z" />
    <glyph glyph-name="ion-arrow-down-a" unicode="&#xf103;" horiz-adv-x="384" 
d="M192 -0l-192 192h112v192h160v-192h112z" />
    <glyph glyph-name="ion-arrow-down-b" unicode="&#xf104;" horiz-adv-x="320" 
d="M3 263c-2 2 -3 6 -3 9c0 9 8 16 17 16v0h286v0c9 0 17 -7 17 -16c0 -3 -1 -6 -3 -8l-2 -3l-136 -156c-5 -5 -11 -9 -19 -9s-14 4 -19 9l-136 156z" />
    <glyph glyph-name="ion-arrow-down-c" unicode="&#xf105;" horiz-adv-x="274" 
d="M265 125l-105 -100c-6 -6 -14 -9 -23 -9s-16 3 -22 9l-106 100c-12 12 -12 31 0 43s34 12 46 0l50 -48v217c0 17 14 31 32 31s32 -14 32 -31v-217l50 48c12 12 34 12 46 0s12 -31 0 -43z" />
    <glyph glyph-name="ion-arrow-expand" unicode="&#xf25e;" horiz-adv-x="320" 
d="M178 238l64 64l-50 50h128v-128l-50 50l-64 -64zM178 146l28 28l64 -64l50 50v-128h-128l50 50zM142 146l-64 -64l50 -50h-128v128l50 -50l64 64zM142 238l-28 -28l-64 64l-50 -50v128h128l-50 -50z" />
    <glyph glyph-name="ion-arrow-graph-down-left" unicode="&#xf25f;" 
d="M0 64v160l61 -61l131 141l107 -112l149 128l-149 -203l-107 107l-94 -98l62 -62h-160z" />
    <glyph glyph-name="ion-arrow-graph-down-right" unicode="&#xf260;" 
d="M288 64l62 62l-94 98l-107 -107l-149 203l149 -128l107 112l131 -141l61 61v-160h-160z" />
    <glyph glyph-name="ion-arrow-graph-up-left" unicode="&#xf261;" 
d="M160 320l-62 -62l94 -98l107 107l149 -203l-149 128l-107 -112l-131 141l-61 -61v160h160z" />
    <glyph glyph-name="ion-arrow-graph-up-right" unicode="&#xf262;" 
d="M288 320h160v-160l-61 61l-131 -141l-107 112l-149 -128l149 203l107 -107l94 98z" />
    <glyph glyph-name="ion-arrow-left-a" unicode="&#xf106;" horiz-adv-x="384" 
d="M0 192l192 192v-112h192v-160h-192v-112z" />
    <glyph glyph-name="ion-arrow-left-b" unicode="&#xf107;" horiz-adv-x="192" 
d="M167 349c2 2 6 3 9 3c9 0 16 -8 16 -17v0v-286v0c0 -9 -7 -17 -16 -17c-3 0 -7 1 -9 3l-2 2l-156 136c-5 5 -9 11 -9 19s4 14 9 19l156 136z" />
    <glyph glyph-name="ion-arrow-left-c" unicode="&#xf108;" horiz-adv-x="352" 
d="M109 320c12 12 32 12 44 0s12 -34 0 -46l-49 -50h217c17 0 31 -14 31 -32s-14 -32 -31 -32h-217l48 -50c12 -12 12 -34 0 -46s-31 -12 -43 0l-100 106c-6 6 -9 13 -9 22s3 17 9 23z" />
    <glyph glyph-name="ion-arrow-move" unicode="&#xf263;" 
d="M448 192l-96 -96v76h-109l1 -108h76l-96 -96l-96 96h76v108h-108v-76l-96 96l96 96v-76h108v108h-76l96 96l96 -96h-76v-108h108v76z" />
    <glyph glyph-name="ion-arrow-resize" unicode="&#xf264;" horiz-adv-x="320" 
d="M192 352h128v-128l-50 50l-9 -9l-183 -183l50 -50h-128v128l50 -50l128 128v0l64 64z" />
    <glyph glyph-name="ion-arrow-return-left" unicode="&#xf265;" horiz-adv-x="384" 
d="M128 352v-64h248c4 0 8 -4 8 -8v-240c0 -4 -4 -8 -8 -8h-304c-4 0 -8 4 -8 8v48c0 4 4 8 8 8h248v128h-192v-64l-128 96z" />
    <glyph glyph-name="ion-arrow-return-right" unicode="&#xf266;" horiz-adv-x="384" 
d="M384 256l-128 -96v64h-192v-128h248c4 0 8 -4 8 -8v-48c0 -4 -4 -8 -8 -8h-304c-4 0 -8 4 -8 8v240c0 4 4 8 8 8h248v64z" />
    <glyph glyph-name="ion-arrow-right-a" unicode="&#xf109;" horiz-adv-x="384" 
d="M384 192l-192 -192v112h-192v160h192v112z" />
    <glyph glyph-name="ion-arrow-right-b" unicode="&#xf10a;" horiz-adv-x="192" 
d="M25 35c-2 -2 -6 -3 -9 -3c-9 0 -16 8 -16 17v0v286v0c0 9 7 17 16 17c3 0 6 -1 8 -3l3 -2l156 -136c5 -5 9 -11 9 -19s-4 -14 -9 -19l-156 -136z" />
    <glyph glyph-name="ion-arrow-right-c" unicode="&#xf10b;" horiz-adv-x="352" 
d="M243 320l100 -105c6 -6 9 -14 9 -23s-3 -16 -9 -22l-100 -106c-12 -12 -31 -12 -43 0s-12 34 0 46l48 50h-217c-17 0 -31 14 -31 32s14 32 31 32h217l-49 50c-12 12 -12 34 0 46s32 12 44 0z" />
    <glyph glyph-name="ion-arrow-shrink" unicode="&#xf267;" horiz-adv-x="384" 
d="M384 356l-82 -82l50 -50h-128v128l50 -50l82 82zM384 28l-28 -28l-82 82l-50 -50v128h128l-50 -50zM0 28l82 82l-50 50h128v-128l-50 50l-82 -82zM0 356l28 28l82 -82l50 50v-128h-128l50 50z" />
    <glyph glyph-name="ion-arrow-swap" unicode="&#xf268;" horiz-adv-x="384" 
d="M0 120c0 4 4 8 8 8h248v64l128 -96l-128 -96v64h-248c-4 0 -8 4 -8 8v48zM384 264c0 -4 -4 -8 -8 -8h-248v-64l-128 96l128 96v-64h248c4 0 8 -4 8 -8v-48z" />
    <glyph glyph-name="ion-arrow-up-a" unicode="&#xf10c;" horiz-adv-x="384" 
d="M192 384l192 -192h-112v-192h-160v192h-112z" />
    <glyph glyph-name="ion-arrow-up-b" unicode="&#xf10d;" horiz-adv-x="320" 
d="M317 121c2 -2 3 -6 3 -9c0 -9 -8 -16 -17 -16v0h-286v0c-9 0 -17 7 -17 16c0 3 1 6 3 8l2 3l136 156c5 5 11 9 19 9s14 -4 19 -9l136 -156z" />
    <glyph glyph-name="ion-arrow-up-c" unicode="&#xf10e;" horiz-adv-x="274" 
d="M9 259l105 100c6 6 14 9 23 9s16 -3 22 -9l106 -100c12 -12 12 -31 0 -43s-34 -12 -46 0l-50 48v-217c0 -17 -14 -31 -32 -31s-32 14 -32 31v217l-50 -49c-12 -12 -34 -12 -46 0s-12 32 0 44z" />
    <glyph glyph-name="ion-asterisk" unicode="&#xf314;" 
d="M448 224v-64l-186 10l104 -170l-56 -32l-86 176l-86 -176l-56 32l104 170l-186 -10v64l187 -7l-109 167l60 32l86 -176l86 176l60 -32l-109 -167z" />
    <glyph glyph-name="ion-at" unicode="&#xf10f;" 
d="M422 41c-24 -25 -52 -43 -85 -55s-69 -18 -105 -18c-35 0 -66 6 -95 17s-53 26 -73 46s-36 43 -47 71s-17 58 -17 90s6 62 18 89s29 51 50 71s46 35 74 47c28 11 58 17 90 17c28 0 55 -4 81 -12s49 -20 69 -36s36 -36 48 -60s18 -53 18 -85c0 -24 -3 -46 -10 -64
s-16 -34 -27 -46s-24 -22 -38 -28s-29 -10 -45 -10s-29 4 -39 12s-15 17 -15 29h-3c-6 -10 -15 -19 -28 -28s-28 -13 -46 -13c-28 0 -49 9 -64 27s-23 42 -23 71c0 17 3 34 9 50s14 31 24 44s23 23 38 31s31 12 49 12c15 0 27 -4 38 -10c10 -6 18 -15 21 -24h1l5 24h54
l-24 -113c-1 -6 -2 -12 -3 -19s-2 -13 -2 -19c0 -7 1 -13 4 -18s7 -7 15 -7c16 0 29 9 39 26s16 40 16 68c0 24 -4 45 -12 64s-20 34 -34 47s-32 23 -52 29s-41 9 -65 9c-26 0 -49 -4 -70 -13s-39 -22 -54 -38s-27 -34 -35 -56c-8 -21 -13 -44 -13 -69c0 -26 4 -51 13 -72
s21 -39 37 -54s35 -27 57 -35s46 -12 72 -12c33 0 61 6 85 16s45 25 65 43zM231 260c-10 0 -18 -2 -25 -8s-14 -13 -19 -22s-8 -18 -11 -28s-4 -20 -4 -30c0 -5 0 -10 1 -16c1 -5 3 -10 6 -15s7 -8 12 -11s11 -5 19 -5c11 0 20 3 28 8s14 13 19 21s9 16 11 26s3 19 3 27
c0 6 0 13 -1 19s-4 12 -7 17s-7 9 -12 12s-12 5 -20 5z" />
    <glyph glyph-name="ion-backspace-outline" unicode="&#xf3be;" horiz-adv-x="512" 
d="M413 116c2 -2 3 -4 3 -6s-1 -4 -3 -6l-21 -22c-2 -2 -4 -2 -6 -2s-4 0 -6 2l-76 77l-76 -77c-2 -2 -4 -2 -6 -2s-4 0 -6 2l-21 22c-2 2 -3 4 -3 6s1 4 3 6l76 76l-77 76c-3 3 -3 9 0 12l22 22c2 2 4 2 6 2s4 0 6 -2l76 -76l76 76c2 2 4 2 6 2s4 0 6 -2l22 -22
c3 -3 3 -9 0 -12l-77 -76zM499 354c9 -9 13 -20 13 -33v-256c0 -27 -20 -49 -46 -49h-298c-13 0 -24 3 -34 9c-9 5 -16 11 -23 20v0l-1 1l-110 146l110 148c14 19 34 28 58 28h298c13 0 24 -5 33 -14zM480 65v256c0 9 -5 15 -14 15h-298c-11 0 -22 -3 -32 -16l-96 -128
l96 -128c8 -10 17 -16 32 -16h298c9 0 14 8 14 17z" />
    <glyph glyph-name="ion-backspace" unicode="&#xf3bf;" horiz-adv-x="512" 
d="M499 354c9 -9 13 -20 13 -33v-256c0 -27 -20 -49 -46 -49h-298c-13 0 -24 3 -34 9c-9 5 -16 11 -23 20v0l-1 1l-110 146l110 148c14 19 34 28 58 28h298c13 0 24 -5 33 -14zM413 116l-76 76l77 76c3 3 3 9 0 12l-22 22c-2 2 -4 2 -6 2s-4 0 -6 -2l-76 -76l-76 76
c-2 2 -4 2 -6 2s-4 0 -6 -2l-22 -22c-3 -3 -3 -9 0 -12l77 -76l-76 -76c-2 -2 -3 -4 -3 -6s1 -4 3 -6l21 -22c2 -2 4 -2 6 -2s4 0 6 2l76 77l76 -77c2 -2 4 -2 6 -2s4 0 6 2l21 22c2 2 3 4 3 6s-1 4 -3 6z" />
    <glyph glyph-name="ion-bag" unicode="&#xf110;" 
d="M416 288l32 -320h-448l32 320h64v4c0 68 56 124 124 124h8c68 0 124 -56 124 -124v-4h64zM128 292v-4h192v4c0 51 -41 92 -92 92v0h-8c-51 0 -92 -41 -92 -92zM36 0h376l-25 256h-35v-36c10 -6 16 -16 16 -28c0 -18 -14 -32 -32 -32s-32 14 -32 32c0 12 6 22 16 28v36
h-192v-36c10 -6 16 -16 16 -28c0 -18 -14 -32 -32 -32s-32 14 -32 32c0 12 6 22 16 28v36h-35z" />
    <glyph glyph-name="ion-bluetooth" unicode="&#xf116;" horiz-adv-x="256" 
d="M12 304c16 16 18 13 19 12l68 -65v0v0c2 -2 10 -10 10 -3v156v0v2c0 6 6 10 12 10c4 0 7 -2 9 -4v0s117 -113 122 -117s5 -10 1 -14l-84 -81s-4 -4 -4 -8s4 -8 4 -8l84 -81c4 -4 4 -10 -1 -14s-122 -117 -122 -117v0c-2 -2 -5 -4 -9 -4c-6 0 -12 4 -12 10v2v0v156
s-8 -1 -10 -3v0v-1l-68 -64c-1 -1 -3 -4 -19 12s-12 17 -11 18s90 86 90 86s4 3 4 8v0c0 5 -4 8 -4 8s-89 85 -90 86s-5 2 11 18zM152 328v-79c0 -8 8 -1 10 1l30 30s3 5 3 7s-1 5 -3 7l-30 30c-2 2 -10 11 -10 4zM152 135v-79s8 2 10 4l30 30c2 2 3 5 3 7s-1 5 -3 7l-30 30
c-2 2 -10 9 -10 1z" />
    <glyph glyph-name="ion-bonfire" unicode="&#xf315;" horiz-adv-x="384" 
d="M207 97l15 -89c1 -3 1 -5 1 -8c0 -18 -14 -32 -32 -32s-32 14 -32 32c0 2 0 5 1 7l15 92v0c2 7 8 13 16 13s15 -7 16 -15zM242 93v0v0v0zM329 58c9 -8 10 -25 0 -35s-27 -9 -35 0c-1 1 -2 3 -3 4l-49 66c-3 5 -2 11 2 15c5 5 10 5 16 1l64 -47c2 -1 3 -3 5 -4zM309 113v0
v0v0zM371 126c9 -1 13 -7 13 -19c0 -9 -10 -14 -18 -12l-57 18v0v0c-3 2 -6 5 -5 9s4 7 8 6zM75 113v0v0v0zM75 113v0l-58 -18c-8 -2 -17 3 -17 12c0 12 3 18 12 19l60 2c4 1 7 -2 8 -6s-2 -7 -5 -9v0zM124 109c5 4 11 4 16 -1c4 -4 5 -10 2 -15l-49 -66c-1 -1 -2 -3 -3 -4
c-10 -10 -25 -10 -35 0s-10 25 0 35c2 2 3 3 5 4zM288 320c0 -32 -9 -58 -50 -86c-37 -26 -94 -46 -110 -106c0 0 -58 24 -48 96s124 106 112 192c24 0 96 -35 96 -96zM288 192c-16 -50 -44 -64 -80 -64c-15 0 -32 9 -43 26c12 15 28 26 47 37c9 5 20 10 29 16
c21 14 38 31 47 49c5 -15 5 -48 0 -64zM88 288c-6 4 -9 14 -8 27c2 22 34 39 32 69c14 2 31 -3 42 -24c-5 -11 -15 -21 -28 -34s-26 -22 -38 -38z" />
    <glyph glyph-name="ion-bookmark" unicode="&#xf26b;" horiz-adv-x="192" 
d="M184 384c4 0 8 -4 8 -8v-56h-192v56c0 4 4 8 8 8h176zM0 0v304h192v-304l-96 96z" />
    <glyph glyph-name="ion-briefcase" unicode="&#xf26c;" 
d="M240 176v8h208v-176c0 -4 -4 -8 -8 -8h-432c-4 0 -8 4 -8 8v176h208v-8h32zM440 304c4 0 8 -4 8 -8v-96h-208v8h-32v-8h-208v96c0 4 4 8 8 8h120v31c1 28 22 49 51 49h90c30 0 50 -21 51 -49v-31h120zM288 332v1c0 10 -9 19 -19 19h-90c-10 0 -19 -9 -19 -19v-1v-1v-27
h128v27v1z" />
    <glyph glyph-name="ion-bug" unicode="&#xf2be;" 
d="M343 321c-6 -16 -16 -31 -28 -43c-24 -24 -57 -37 -91 -37s-67 13 -91 37c-12 12 -22 27 -28 43c29 39 72 63 119 63s90 -24 119 -63zM95 305c22 -45 68 -77 121 -80v-225c-40 2 -77 22 -104 54c-7 -6 -10 -9 -13 -15c8 -9 7 -22 -1 -31c-9 -10 -24 -11 -34 -2
s-11 24 -2 34l3 3s2 1 2 1c4 13 13 25 27 36c-15 26 -26 57 -29 90c-7 0 -12 -2 -17 -3c-1 -13 -11 -23 -24 -23s-24 11 -24 24s11 24 24 24h3c4 2 8 5 12 6c7 2 14 4 25 4c1 23 6 45 13 65c-6 4 -11 7 -15 11c-6 5 -11 13 -14 19c-1 0 -3 1 -4 2c-12 6 -15 21 -9 33
s21 15 33 9c11 -6 15 -20 10 -31c2 -3 3 -7 4 -8c2 -2 5 -3 8 -5c2 3 3 5 5 8zM424 192c13 0 24 -11 24 -24s-11 -24 -24 -24s-23 10 -24 23c-5 1 -10 3 -17 3c-3 -33 -14 -64 -29 -90c14 -11 23 -23 27 -36c0 0 1 0 2 -1l3 -3c9 -10 8 -25 -2 -34s-25 -8 -34 2
c-8 9 -9 22 -1 31c-3 6 -6 9 -13 15c-27 -32 -64 -52 -104 -54v225c53 3 99 35 121 80c2 -3 3 -5 5 -8c3 2 6 3 8 5c1 1 2 5 4 8c-5 11 -1 25 10 31c12 6 27 3 33 -9s3 -27 -9 -33c-1 -1 -3 -2 -4 -2c-3 -6 -8 -14 -14 -19c-4 -4 -9 -7 -15 -11c7 -20 12 -42 13 -65
c11 0 18 -2 25 -4c4 -1 8 -4 12 -6h3z" />
    <glyph glyph-name="ion-calculator" unicode="&#xf26d;" horiz-adv-x="320" 
d="M304 416c9 0 16 -7 16 -16v-416c0 -9 -7 -16 -16 -16h-288c-9 0 -16 7 -16 16v416c0 9 7 16 16 16h288zM48 240v-32h32v32h-32zM48 176v-32h32v32h-32zM48 112v-32h32v32h-32zM144 16v32h-96v-32h96zM144 80v32h-32v-32h32zM144 144v32h-32v-32h32zM144 208v32h-32v-32
h32zM208 16v32h-32v-32h32zM208 80v32h-32v-32h32zM208 144v32h-32v-32h32zM208 208v32h-32v-32h32zM272 16v96h-32v-96h32zM272 144v32h-32v-32h32zM272 208v32h-32v-32h32zM272 288v80h-224v-80h224z" />
    <glyph glyph-name="ion-calendar" unicode="&#xf117;" 
d="M112 320c-18 0 -32 14 -32 32v32c0 18 14 32 32 32s32 -14 32 -32v-32c0 -18 -14 -32 -32 -32zM336 320c-18 0 -32 14 -32 32v32c0 18 14 32 32 32s32 -14 32 -32v-32c0 -18 -14 -32 -32 -32zM440 384c4 0 8 -4 8 -8v-400c0 -4 -4 -8 -8 -8h-432c-4 0 -8 4 -8 8v400
c0 4 4 8 8 8h56v-41c0 -22 24 -39 48 -39s48 17 48 39v41h128v-41c0 -22 25 -39 49 -39s47 17 47 39v41h56zM400 16v256h-352v-256h352z" />
    <glyph glyph-name="ion-camera" unicode="&#xf118;" horiz-adv-x="416" 
d="M382 301c18 0 34 -14 34 -33v-202c0 -19 -16 -34 -34 -34h-348c-19 0 -34 15 -34 34v202c0 19 15 33 34 33h69l39 40v0c6 7 15 11 25 11h84c9 0 17 -4 23 -10v0v0v0l41 -41h67zM208 82c51 0 92 42 92 93s-41 93 -92 93s-92 -42 -92 -93s41 -93 92 -93zM376 248
c8 0 14 6 14 14s-6 14 -14 14s-14 -6 -14 -14s6 -14 14 -14zM208 245c38 0 70 -31 70 -70s-32 -70 -70 -70c-39 0 -70 31 -70 70s31 70 70 70z" />
    <glyph glyph-name="ion-card" unicode="&#xf119;" 
d="M420 352c16 0 28 -12 28 -28v0v-264v0c0 -16 -12 -28 -28 -28h-392c-16 0 -28 12 -28 28v0v0v264v0v0c0 16 12 28 28 28h392zM45 320c-7 0 -12 -5 -13 -12v-20h384v20c-1 7 -6 12 -13 12h-358zM403 64c7 0 12 5 13 12v116h-384v-116c1 -7 6 -12 13 -12h358zM64 128v16
h192v-16h-192zM64 96v16h96v-16h-96zM320 96v48h64v-48h-64z" />
    <glyph glyph-name="ion-cash" unicode="&#xf316;" horiz-adv-x="512" 
d="M0 352h512v-256h-512v256zM193 128c-20 23 -33 58 -33 96s13 73 33 96h-97c0 -35 -29 -64 -64 -64v-80c27 0 48 -21 48 -48h113zM298 187c3 4 4 9 4 15c0 3 0 5 -1 8s-2 6 -4 8s-4 4 -7 6s-6 4 -10 5c-1 0 -4 1 -7 2s-5 0 -8 1v31c2 -1 5 -2 7 -3c4 -3 6 -7 7 -13h20
c0 5 -2 9 -4 13s-5 8 -9 11s-9 5 -14 6c-2 1 -5 2 -7 2v9h-18v-9c-2 0 -4 -1 -6 -2c-5 -1 -10 -2 -14 -5s-7 -6 -9 -10s-4 -9 -4 -14c0 -3 0 -5 1 -8s2 -5 4 -7s5 -5 8 -7s7 -4 12 -5c3 -1 6 0 8 -1v-35c-3 1 -6 2 -9 4s-5 4 -6 7s-2 6 -2 9h-20c0 -5 2 -11 4 -16
c3 -5 6 -8 10 -11s9 -6 15 -7c3 -1 5 -2 8 -2v-9h18v9c3 0 6 1 9 2c5 1 10 2 14 5s7 7 10 11zM480 176v80c-35 0 -64 29 -64 64h-97c20 -23 33 -58 33 -96s-13 -73 -33 -96h113c0 27 22 48 48 48zM64 224c0 18 14 32 32 32s32 -14 32 -32s-14 -32 -32 -32s-32 14 -32 32z
M384 224c0 18 14 32 32 32s32 -14 32 -32s-14 -32 -32 -32s-32 14 -32 32zM273 213c2 -1 4 -2 6 -4s3 -5 3 -9c0 -2 0 -4 -1 -6s-2 -4 -4 -5s-5 -3 -8 -4c-1 0 -2 -1 -4 -1v31c3 -1 6 -1 8 -2zM236 257c1 2 3 3 5 4s4 2 6 2v-26c-4 1 -7 3 -9 5s-4 4 -4 8c0 3 1 5 2 7zM0 32
v32h512v-32h-512z" />
    <glyph glyph-name="ion-chatbox-working" unicode="&#xf11a;" horiz-adv-x="416" 
d="M76 48c-42 0 -76 31 -76 71v209c0 40 34 72 76 72h264c42 0 76 -32 76 -72v-209c0 -40 -34 -71 -76 -71h-4v-64s-79 54 -86 59s-7 5 -21 5h-153zM304 256c-18 0 -32 -14 -32 -32s14 -32 32 -32s32 14 32 32s-14 32 -32 32zM208 256c-18 0 -32 -14 -32 -32s14 -32 32 -32
s32 14 32 32s-14 32 -32 32zM112 256c-18 0 -32 -14 -32 -32s14 -32 32 -32s32 14 32 32s-14 32 -32 32z" />
    <glyph glyph-name="ion-chatbox" unicode="&#xf11b;" horiz-adv-x="416" 
d="M76 48c-42 0 -76 31 -76 71v209c0 40 34 72 76 72h264c42 0 76 -32 76 -72v-209c0 -40 -34 -71 -76 -71h-4v-64s-79 54 -86 59s-7 5 -21 5h-153z" />
    <glyph glyph-name="ion-chatboxes" unicode="&#xf11c;" horiz-adv-x="416" 
d="M246 82l26 -18c-4 -21 -29 -32 -52 -32h-90c-8 0 -11 -2 -13 -3l-53 -45v48h-16c-26 0 -48 16 -48 41v129c0 25 20 45 46 45h2v-101c0 -33 29 -59 64 -59h117c10 0 14 -3 17 -5zM353 400c35 0 63 -27 63 -60v-168c0 -33 -28 -60 -63 -60h-17v-64l-75 60c-2 2 -7 4 -17 4
h-101c-35 0 -63 27 -63 60v98v70c0 33 21 60 56 60h217z" />
    <glyph glyph-name="ion-chatbubble-working" unicode="&#xf11d;" horiz-adv-x="416" 
d="M208 -1c-115 0 -208 89 -208 200s93 201 208 201s208 -90 208 -201c0 -40 -12 -77 -33 -108c-1 -1 -2 -3 -3 -4v0c-2 -4 -4 -10 -4 -15l22 -88l-84 31c-4 2 -8 2 -12 2s-7 -1 -11 -2v0c-1 0 -1 -1 -2 -1c-25 -10 -52 -15 -81 -15zM304 224c-18 0 -32 -14 -32 -32
s14 -32 32 -32s32 14 32 32s-14 32 -32 32zM208 224c-18 0 -32 -14 -32 -32s14 -32 32 -32s32 14 32 32s-14 32 -32 32zM112 224c-18 0 -32 -14 -32 -32s14 -32 32 -32s32 14 32 32s-14 32 -32 32z" />
    <glyph glyph-name="ion-chatbubble" unicode="&#xf11e;" horiz-adv-x="416" 
d="M208 -1c-115 0 -208 89 -208 200s93 201 208 201s208 -90 208 -201c0 -40 -12 -77 -33 -108c-1 -1 -2 -3 -3 -4v0c-2 -4 -4 -10 -4 -15l22 -88l-84 31c-4 2 -8 2 -12 2s-7 -1 -11 -2v0c-1 0 -1 -1 -2 -1c-25 -10 -52 -15 -81 -15z" />
    <glyph glyph-name="ion-chatbubbles" unicode="&#xf11f;" horiz-adv-x="416" 
d="M25 57c-1 1 0 2 -1 3c-15 22 -24 49 -24 77c0 42 19 80 49 106c-2 -11 -4 -22 -4 -34c0 -92 78 -168 174 -168c15 0 30 2 44 6c-27 -32 -69 -53 -115 -53c-20 0 -40 5 -58 12h-1v0c-2 1 -5 2 -8 2s-6 -1 -9 -2l-56 -22l12 63c0 4 -1 7 -3 10v0zM242 400
c96 0 174 -76 174 -168c0 -33 -11 -64 -28 -90c-1 -1 -1 -2 -2 -3v0c-2 -4 -3 -8 -3 -12l17 -74l-69 26c-3 1 -6 2 -10 2c-3 0 -6 -1 -9 -2v0l-2 -1c-8 -3 -16 -5 -24 -7c-14 -4 -29 -6 -44 -6c-96 0 -173 75 -173 167c0 12 1 24 3 35c16 76 86 133 170 133z" />
    <glyph glyph-name="ion-checkmark-circled" unicode="&#xf120;" 
d="M224 416c124 0 224 -100 224 -224s-100 -224 -224 -224s-224 100 -224 224s100 224 224 224zM339 267c1 1 1 2 1 3s0 3 -1 4l-31 24c-1 1 -3 1 -4 1s-2 0 -3 -1l-111 -143s-44 42 -45 43s-4 3 -6 3s-3 -2 -4 -3l-25 -25l-1 -1c-1 -1 -1 -3 -1 -4s0 -2 1 -3l2 -1
s78 -75 79 -76s3 -3 5 -3s4 2 5 3z" />
    <glyph glyph-name="ion-checkmark-round" unicode="&#xf121;" horiz-adv-x="416" 
d="M400 376c17 -13 22 -39 9 -57l-207 -302c-13 -18 -37 -22 -54 -9s-137 147 -137 147c-15 16 -15 42 1 58s40 15 55 -2l99 -107l180 263c13 18 37 22 54 9z" />
    <glyph glyph-name="ion-checkmark" unicode="&#xf122;" horiz-adv-x="416" 
d="M414 338c1 -2 2 -4 2 -6s-1 -4 -2 -6l-249 -320c-2 -2 -5 -6 -9 -6s-8 3 -10 5s-141 136 -141 136l-3 3c-1 2 -2 4 -2 6s1 3 2 5l2 2c14 15 42 44 44 46s4 6 8 6s8 -4 10 -6s80 -78 80 -78l200 257c2 2 4 2 6 2s5 -1 7 -2z" />
    <glyph glyph-name="ion-chevron-down" unicode="&#xf123;" 
d="M224 150v0v0l174 167c4 4 12 4 16 0l31 -30c4 -4 4 -12 0 -16l-213 -204c-2 -2 -5 -3 -8 -3s-6 1 -8 3l-213 204c-4 4 -4 12 0 16l31 30c4 4 12 4 16 0z" />
    <glyph glyph-name="ion-chevron-left" unicode="&#xf124;" horiz-adv-x="256" 
d="M86 192l167 -174c4 -4 4 -12 0 -16l-30 -31c-4 -4 -12 -4 -16 0l-204 213c-2 2 -3 5 -3 8s1 6 3 8l204 213c4 4 12 3 16 -1l30 -30c4 -4 4 -12 0 -16l-167 -174v0v0z" />
    <glyph glyph-name="ion-chevron-right" unicode="&#xf125;" horiz-adv-x="256" 
d="M170 192v0v0l-167 174c-4 4 -4 12 0 16l30 30c4 4 12 5 16 1l204 -213c2 -2 3 -5 3 -8s-1 -6 -3 -8l-204 -213c-4 -4 -12 -4 -16 0l-30 31c-4 4 -4 12 0 16z" />
    <glyph glyph-name="ion-chevron-up" unicode="&#xf126;" 
d="M224 234l-174 -167c-4 -4 -12 -4 -16 0l-31 30c-4 4 -4 12 0 16l213 204c2 2 5 3 8 3s6 -1 8 -3l213 -204c4 -4 4 -12 0 -16l-31 -30c-4 -4 -12 -4 -16 0l-174 167v0v0z" />
    <glyph glyph-name="ion-clipboard" unicode="&#xf127;" horiz-adv-x="352" 
d="M80 288c2 20 10 35 28 40l1 1c12 3 21 7 21 20v21c0 26 21 46 46 46s46 -20 46 -46v-21c0 -13 9 -18 21 -21h2c18 -5 25 -20 27 -40h-192zM176 384c-8 0 -13 -6 -13 -14s5 -14 13 -14s14 6 14 14s-6 14 -14 14zM325 384c15 0 27 -12 27 -28v-360c0 -16 -12 -28 -27 -28
h-149h-148c-15 0 -28 12 -28 28v360c0 16 13 28 28 28h73v-13c0 -11 -9 -19 -19 -19h-37c-7 0 -12 -6 -12 -13v-327c0 -6 5 -12 11 -12h265c6 0 11 6 11 12v327c0 7 -5 13 -12 13h-37c-10 0 -20 8 -20 19v13h74zM64 224v32h112v-32h-112zM64 32v32h160v-32h-160zM64 96v32
h129v-32h-129zM64 160v32h208v-32h-208z" />
    <glyph glyph-name="ion-clock" unicode="&#xf26e;" 
d="M224 416c124 0 224 -100 224 -224s-100 -224 -224 -224s-224 100 -224 224s100 224 224 224zM360 56c10 10 19 21 26 33l-27 16l8 14l27 -16c13 25 21 52 22 81h-32v16h32c-1 29 -9 56 -22 81l-27 -16l-8 14l27 16c-7 12 -16 23 -26 33s-21 19 -33 26l-16 -27l-14 8
l16 27c-25 13 -52 21 -81 22v-32h-16v32c-29 -1 -56 -9 -81 -22l16 -27l-14 -8l-16 27c-12 -7 -23 -16 -33 -26s-19 -21 -26 -33l27 -16l-8 -14l-27 16c-13 -25 -21 -52 -22 -81h32v-16h-32c1 -29 9 -56 22 -81l27 16l8 -14l-27 -16c7 -12 16 -23 26 -33s21 -19 33 -26
l16 27l14 -8l-16 -27c25 -13 52 -21 81 -22v32h16v-32c29 1 56 9 81 22l-16 27l14 8l16 -27c12 7 23 16 33 26zM368 207v-32h-117c-6 -9 -16 -15 -27 -15c-18 0 -32 14 -32 32c0 12 6 22 16 28v68h32v-68c5 -3 9 -8 12 -13h116z" />
    <glyph glyph-name="ion-close-circled" unicode="&#xf128;" 
d="M224 415c124 0 224 -100 224 -224s-100 -224 -224 -224s-224 100 -224 224s100 224 224 224zM332 116l-75 75l76 75c3 3 3 9 0 12l-22 21c-2 2 -4 3 -6 3s-3 -1 -5 -3l-76 -74l-76 74c-2 2 -3 3 -5 3s-4 -1 -6 -3l-21 -21c-3 -3 -3 -9 0 -12l76 -75l-76 -76
c-2 -1 -2 -3 -2 -5s0 -4 2 -6l21 -22c2 -2 4 -2 6 -2s4 0 6 2l75 76l76 -75c2 -2 3 -3 5 -3s4 1 6 3l21 21c2 1 3 4 3 6s-1 4 -3 6z" />
    <glyph glyph-name="ion-close-round" unicode="&#xf129;" horiz-adv-x="384" 
d="M374 61c14 -14 14 -37 0 -51s-37 -14 -51 0l-131 131l-131 -131c-14 -14 -36 -14 -50 0s-14 37 0 51l130 131l-130 131c-14 14 -14 37 0 51s36 14 50 0l131 -131l131 131c14 14 37 14 51 0s14 -37 0 -51l-131 -131z" />
    <glyph glyph-name="ion-close" unicode="&#xf12a;" horiz-adv-x="384" 
d="M380 61c3 -3 4 -6 4 -10s-1 -7 -4 -10l-38 -37c-3 -3 -5 -4 -9 -4s-7 1 -10 4l-131 131l-131 -131c-3 -3 -5 -4 -9 -4s-7 1 -10 4l-38 37c-3 3 -4 6 -4 10s1 7 4 10l132 131l-132 130c-5 5 -5 15 0 20l37 38c3 2 6 4 10 4s7 -1 10 -4l131 -130l131 130c3 2 6 4 10 4
s7 -1 10 -4l37 -38c5 -5 5 -14 0 -19l-132 -130z" />
    <glyph glyph-name="ion-closed-captioning" unicode="&#xf317;" horiz-adv-x="512" 
d="M0 384h512v-384h-512v384zM464 192c0 27 0 44 -4 80s-23 56 -59 60s-91 4 -138 4h-7h-7c-47 0 -102 0 -138 -4s-55 -24 -59 -60s-4 -53 -4 -80s2 -47 4 -80s19 -56 59 -60s96 -4 145 -4s105 0 145 4s57 27 59 60s4 53 4 80zM372 164v4h53c0 -27 -7 -48 -19 -62
s-32 -21 -61 -21c-14 0 -26 2 -36 5s-18 9 -25 17s-12 19 -15 33s-5 30 -5 51s3 39 7 53s9 25 17 33s17 14 27 17s22 5 34 5c25 0 44 -7 57 -21s19 -37 19 -62h-52v1c0 20 -12 33 -27 33s-25 -11 -28 -30c0 0 -2 -11 -2 -29s2 -28 2 -28c1 -17 12 -29 27 -29s27 10 27 29v1z
M195 164v4h53c0 -27 -7 -48 -19 -62s-32 -21 -61 -21c-14 0 -26 2 -36 5s-18 9 -25 17s-12 19 -15 33s-5 30 -5 51s3 39 7 53s9 25 17 33s17 14 27 17s22 5 34 5c25 0 44 -7 57 -21s19 -37 19 -62h-52v1c0 20 -12 33 -27 33s-25 -11 -28 -30c0 0 -2 -11 -2 -29s2 -28 2 -28
c1 -17 12 -29 27 -29s27 10 27 29v1z" />
    <glyph glyph-name="ion-cloud" unicode="&#xf12b;" 
d="M366 215c45 0 82 -38 82 -84s-37 -83 -82 -83v0h-276c-49 0 -90 41 -90 91c0 40 26 74 61 86c5 29 29 51 59 51c10 0 18 -3 26 -7c19 40 59 67 105 67c64 0 115 -53 115 -118v-3z" />
    <glyph glyph-name="ion-code-download" unicode="&#xf26f;" 
d="M299 164l-63 -63v0l-1 -1v0l-2 -1v0l-1 -1v0l-2 -1v0h-1v0h-1c-1 0 -3 -1 -4 -1s-3 1 -4 1h-1v0h-1v0l-2 1v0l-1 1v0c-1 1 -2 1 -3 2v0l-63 63c-6 6 -6 17 0 23s18 6 24 0l35 -34v118c0 9 7 17 16 17s16 -8 16 -17v-118l35 34c6 6 18 6 24 0s6 -17 0 -23zM136 56
c-6 0 -12 2 -17 7l-112 112c-9 9 -9 25 0 34l112 112c9 9 25 9 34 0s9 -25 0 -34l-95 -95l95 -95c9 -9 9 -25 0 -34c-5 -5 -11 -7 -17 -7zM312 56c-6 0 -12 2 -17 7c-9 9 -9 25 0 34l95 95l-95 95c-9 9 -9 25 0 34s25 9 34 0l112 -112c9 -9 9 -25 0 -34l-112 -112
c-5 -5 -11 -7 -17 -7z" />
    <glyph glyph-name="ion-code-working" unicode="&#xf270;" 
d="M128 192c0 13 11 24 24 24s24 -11 24 -24s-11 -24 -24 -24s-24 11 -24 24zM200 192c0 13 11 24 24 24s24 -11 24 -24s-11 -24 -24 -24s-24 11 -24 24zM272 192c0 13 11 24 24 24s24 -11 24 -24s-11 -24 -24 -24s-24 11 -24 24zM136 56c-6 0 -12 2 -17 7l-112 112
c-9 9 -9 25 0 34l112 112c9 9 25 9 34 0s9 -25 0 -34l-95 -95l95 -95c9 -9 9 -25 0 -34c-5 -5 -11 -7 -17 -7zM312 56c-6 0 -12 2 -17 7c-9 9 -9 25 0 34l95 95l-95 95c-9 9 -9 25 0 34s25 9 34 0l112 -112c9 -9 9 -25 0 -34l-112 -112c-5 -5 -11 -7 -17 -7z" />
    <glyph glyph-name="ion-code" unicode="&#xf271;" 
d="M136 56c-6 0 -12 2 -17 7l-112 112c-9 9 -9 25 0 34l112 112c9 9 25 9 34 0s9 -25 0 -34l-95 -95l95 -95c9 -9 9 -25 0 -34c-5 -5 -11 -7 -17 -7zM312 56c-6 0 -12 2 -17 7c-9 9 -9 25 0 34l95 95l-95 95c-9 9 -9 25 0 34s25 9 34 0l112 -112c9 -9 9 -25 0 -34l-112 -112
c-5 -5 -11 -7 -17 -7z" />
    <glyph glyph-name="ion-coffee" unicode="&#xf272;" horiz-adv-x="384" 
d="M319 191c37 -7 65 -40 65 -79c0 -20 -8 -39 -21 -54c-15 -17 -37 -26 -61 -26c-8 0 -17 1 -25 3c-6 1 -10 3 -15 5c-11 -15 -23 -25 -32 -33v0c-5 -5 -12 -7 -19 -7h-102c-7 0 -14 2 -19 7v0c-17 15 -41 36 -62 86s-28 91 -28 111s3 20 16 20h101c-5 17 -37 19 -37 46
c0 17 15 32 28 37c-2 -8 -3 -14 -3 -21c0 -19 39 -30 39 -53c0 -3 0 -6 -1 -9h56c1 5 2 10 2 14c0 36 -56 36 -56 84c0 28 21 55 47 62c-4 -14 -9 -23 -9 -35c0 -32 57 -50 57 -88c0 -13 -5 -25 -12 -37h76c13 0 16 0 16 -20c0 -4 0 -8 -1 -13zM302 64c33 0 50 25 50 48
s-17 43 -39 47c-4 -19 -11 -42 -21 -66c-4 -9 -8 -17 -12 -25c6 -3 13 -4 22 -4z" />
    <glyph glyph-name="ion-compass" unicode="&#xf273;" 
d="M224 416c124 0 224 -100 224 -224s-100 -224 -224 -224s-224 100 -224 224c0 39 10 76 27 108c-16 12 -27 30 -27 52c0 35 29 64 64 64c22 0 40 -11 52 -27c32 17 69 27 108 27zM32 352c0 -10 5 -20 13 -26c13 17 28 32 45 45c-6 8 -16 13 -26 13c-18 0 -32 -14 -32 -32z
M360 56c36 36 56 85 56 136s-20 100 -56 136s-85 56 -136 56s-100 -20 -136 -56s-56 -85 -56 -136s20 -100 56 -136s85 -56 136 -56s100 20 136 56zM320 320c0 0 -54 -130 -72 -152s-120 -104 -120 -104s54 132 72 152s120 104 120 104z" />
    <glyph glyph-name="ion-compose" unicode="&#xf12c;" horiz-adv-x="384" 
d="M379 348c7 -7 7 -18 0 -25l-32 -31l-55 55l31 32c7 7 18 7 25 0zM282 338l55 -55l-177 -173l-64 -14l14 64zM320 192l32 32v-201c0 -13 -10 -23 -23 -23h-306c-13 0 -23 10 -23 23v306c0 13 10 23 23 23h201l-32 -32h-149c-6 0 -11 -5 -11 -10v-268s4 -10 10 -10h269
s9 5 9 10v150z" />
    <glyph glyph-name="ion-connection-bars" unicode="&#xf274;" horiz-adv-x="352" 
d="M0 32v64h64v-64h-64zM96 32v128h64v-128h-64zM192 32v224h64v-224h-64zM288 32v320h64v-320h-64z" />
    <glyph glyph-name="ion-contrast" unicode="&#xf275;" 
d="M224 416c124 0 224 -100 224 -224s-100 -224 -224 -224s-224 100 -224 224s100 224 224 224zM360 56c36 36 56 85 56 136s-20 100 -56 136s-85 56 -136 56v-384c51 0 100 20 136 56z" />
    <glyph glyph-name="ion-crop" unicode="&#xf3c1;" 
d="M320 -32v48h64v-48h-64zM384 96h64v-64h-384v256h-64v64h64v64h64v-320h192v192h-176v64h240v-256z" />
    <glyph glyph-name="ion-cube" unicode="&#xf318;" 
d="M435 280c7 0 13 -6 13 -12v-183c0 -9 -6 -17 -14 -22v-1l-175 -92v-1c-2 -1 -4 -1 -6 -1c-7 0 -13 6 -13 12v185c0 9 5 17 13 22v0l3 2l172 89l2 1c2 1 3 1 5 1zM422 329c0 0 8 -3 8 -9c0 -7 -8 -11 -8 -11l-183 -97l-2 -1c-4 -2 -8 -3 -13 -3s-9 1 -13 3l-2 1l-183 96
s-8 5 -8 12c0 6 8 9 8 9l181 82s11 5 17 5s17 -5 17 -5zM195 187c8 -5 13 -13 13 -22v-185c0 -6 -6 -12 -13 -12c-2 0 -4 1 -6 2v0l-175 92v1c-8 5 -14 13 -14 22v183c0 6 6 12 13 12c2 0 4 0 5 -1l2 -1l171 -89z" />
    <glyph glyph-name="ion-disc" unicode="&#xf12d;" 
d="M224 289c54 0 97 -43 97 -97s-43 -97 -97 -97s-97 43 -97 97s43 97 97 97zM224 148c24 0 44 20 44 44s-20 44 -44 44s-44 -20 -44 -44s20 -44 44 -44zM224 416c124 0 224 -100 224 -224s-100 -224 -224 -224s-224 100 -224 224s100 224 224 224zM224 69
c68 0 123 55 123 123s-55 123 -123 123s-123 -55 -123 -123s55 -123 123 -123z" />
    <glyph glyph-name="ion-document-text" unicode="&#xf12e;" horiz-adv-x="288" 
d="M286 279c1 -3 2 -6 2 -10v-245c0 -13 -10 -24 -22 -24h-243c-12 0 -23 11 -23 24v336c0 13 11 24 23 24h160c3 0 6 0 9 -2c2 -1 5 -3 7 -5l84 -92c2 -2 2 -4 3 -6zM48 269v-10c0 -1 1 -3 3 -3h71c2 0 3 2 3 3v10c0 2 -1 3 -3 3h-71c-2 0 -3 -1 -3 -3zM48 141v-10
c0 -1 1 -3 3 -3h123c2 0 2 2 2 3v10c0 2 0 3 -2 3h-123c-2 0 -3 -1 -3 -3zM208 67v10c0 2 0 3 -2 3h-155c-2 0 -3 -1 -3 -3v-10c0 -1 1 -3 3 -3h155c2 0 2 2 2 3zM240 195v10c0 2 0 3 -2 3h-187c-2 0 -3 -1 -3 -3v-10c0 -1 1 -3 3 -3h187c2 0 2 2 2 3zM193 270h60l-71 78
v-66c0 -6 5 -12 11 -12z" />
    <glyph glyph-name="ion-document" unicode="&#xf12f;" horiz-adv-x="288" 
d="M287 279c1 -3 1 -5 1 -9v-244c0 -13 -9 -26 -21 -26h-243c-12 0 -24 13 -24 26v335c0 13 12 23 24 23h160c3 0 6 0 9 -2c2 -1 5 -2 7 -4l83 -92c2 -2 3 -4 4 -7zM193 337v-63h58zM32 32h224v210h-67c-15 0 -28 13 -28 28v82h-129v-320z" />
    <glyph glyph-name="ion-drag" unicode="&#xf130;" horiz-adv-x="512" 
d="M0 272v32h512v-32h-512zM0 176v32h512v-32h-512zM0 80v32h512v-32h-512z" />
    <glyph glyph-name="ion-earth" unicode="&#xf276;" 
d="M325 322c2 -4 7 -12 3 -15c-3 -2 -10 -2 -13 5s0 11 -5 9s-7 3 -6 4c1 2 3 3 5 4c0 2 -4 8 2 7c4 -1 12 -10 14 -14zM344 277v0v0zM403 251c0 0 -2 0 0 0v0zM224 416c124 0 224 -100 224 -224s-100 -224 -224 -224s-224 100 -224 224s100 224 224 224zM141 19l8 -4
c3 -1 6 -2 10 -3c14 -5 28 -8 43 -10c28 -3 56 -1 83 8c15 5 30 11 43 20c6 4 6 16 10 24c8 16 -2 33 12 47c12 14 4 19 4 34c0 10 8 18 4 29c-1 4 -7 -3 -9 1c-5 7 -21 1 -28 2c-13 2 -24 14 -33 23c-5 5 0 20 1 26c4 15 0 33 19 38c5 1 5 9 10 11c5 1 10 3 15 4
c9 1 17 -2 26 -2c10 0 14 -5 22 -11c7 -6 13 -3 22 -5c7 0 0 5 -2 8c-3 2 -6 2 -8 2c-16 4 -23 22 -36 30c-6 3 -9 2 -11 0c-1 -1 1 -12 1 -12c-1 -3 -10 -4 -13 -5c-9 -2 -29 17 -15 22c4 1 27 5 24 15c-3 6 2 13 -5 14c-8 1 -7 7 -15 8c-5 1 -5 11 -5 14c0 9 2 6 9 7
c-17 11 -37 19 -57 24c-1 -3 -5 -12 -8 -12c-5 -1 -6 0 -9 -3c-9 -10 -16 -28 -25 -7c-4 11 5 19 2 28h-6h-3c6 -12 -5 -18 -8 -19c-8 0 -10 5 -17 4c-4 -1 -7 4 -11 2s-13 -8 -14 -12c-3 -12 6 -13 14 -6c6 6 17 12 25 6c6 -5 5 -9 5 -14s-1 -18 -9 -16c-4 1 -7 6 -11 3
c-8 -7 -18 -6 -29 -9c-10 -2 -16 -6 -25 -9c-8 -3 -11 -4 -12 -12c0 -2 0 -14 -3 -15c-5 -2 -8 22 -22 20c-12 -1 -30 -13 -25 -28c2 -5 28 -3 10 -14c-2 -1 2 -17 2 -20c1 -8 13 -18 21 -10c6 6 6 5 14 2c15 -8 33 -15 45 -27c6 -6 9 -24 17 -28c9 -5 19 -5 26 -14
c6 -7 -2 -19 -8 -23c-4 -2 -12 -24 -16 -29c-2 -4 -12 -6 -16 -7c-3 0 -7 -9 -9 -11c-7 -7 -8 -13 -17 -19c-18 -12 -22 -23 -18 -44c2 -8 5 -13 11 -16zM100 46l2 -2c7 -6 15 -11 23 -16c-21 21 -23 49 -21 78l3 24c1 3 -4 7 -4 11c0 10 0 5 -8 13c-4 4 -10 11 -12 17
c-7 16 1 30 10 43c9 14 -7 20 -10 32c-1 6 -7 6 -6 12c1 7 -4 5 -9 9c-12 8 -1 20 -7 26c-43 -70 -36 -162 16 -224c1 -1 0 -1 1 -2h1c3 -4 6 -8 9 -11s7 -6 10 -9z" />
    <glyph glyph-name="ion-easel" unicode="&#xf3c2;" 
d="M48 112v192h352v-192h-352zM432 352c9 0 16 -7 16 -16v-256c0 -9 -7 -16 -16 -16h-416c-9 0 -16 7 -16 16v256c0 9 7 16 16 16h416zM416 96v224h-384v-224h384zM48 -32l29 80h31l-28 -80h-32zM239 416l17 -48h-64l17 48h30zM340 48h31l29 -80h-32zM208 0v48h32v-48h-32z
" />
    <glyph glyph-name="ion-edit" unicode="&#xf2bf;" 
d="M381 259l-250 -251l-91 91l251 250zM440 360c12 -12 11 -32 -2 -45l-45 -45l-91 91l45 45c13 13 33 14 45 2zM32 85l85 -85l-117 -32z" />
    <glyph glyph-name="ion-eject" unicode="&#xf131;" horiz-adv-x="320" 
d="M303 128h-286v0c-10 0 -17 7 -17 16c0 3 1 5 3 8l138 191c5 5 11 9 19 9s14 -4 19 -9l138 -190c2 -3 3 -6 3 -9c0 -9 -7 -16 -17 -16v0zM308 96c7 0 12 -5 12 -12v-40c0 -7 -5 -12 -12 -12h-296c-7 0 -12 5 -12 12v40c0 7 5 12 12 12h296z" />
    <glyph glyph-name="ion-email-unread" unicode="&#xf3c3;" horiz-adv-x="480" 
d="M352 288c0 35 29 64 64 64s64 -29 64 -64s-29 -64 -64 -64s-64 29 -64 64zM209 288h127c0 -17 6 -34 15 -47c-49 -27 -117 -64 -121 -66c-6 -3 -12 -4 -21 -4s-15 1 -21 4s-158 86 -169 92c-4 2 -11 7 -13 11c-3 8 1 10 12 10h191zM277 175c25 16 57 38 83 56
c14 -14 34 -23 56 -23v-155c0 -9 -12 -21 -22 -21h-185h-185c-10 0 -24 12 -24 21v205s0 9 9 5c8 -4 83 -56 132 -88l-83 -93c-2 -2 -2 -4 -1 -5s4 -1 6 1l98 83c15 -10 25 -16 27 -17c8 -4 14 -4 21 -4s13 0 21 4c2 1 12 7 27 17l98 -83c2 -2 5 -2 6 -1s0 3 -2 5z" />
    <glyph glyph-name="ion-email" unicode="&#xf132;" horiz-adv-x="416" 
d="M19 299c-4 2 -11 7 -13 11c-3 8 1 10 12 10h191h191c11 0 15 -2 12 -10c-2 -4 -9 -9 -13 -11c-11 -6 -163 -89 -169 -92s-12 -4 -21 -4s-15 1 -21 4s-158 86 -169 92zM408 295c9 4 8 -1 8 -5v-205c0 -9 -12 -21 -22 -21h-185h-185c-10 0 -24 12 -24 21v205s0 9 9 5
c8 -4 83 -56 132 -88l-83 -93c-2 -2 -2 -4 -1 -5s4 -1 6 1l98 83c15 -10 25 -16 27 -17c8 -4 14 -4 21 -4s13 0 21 4c2 1 12 7 27 17l98 -83c2 -2 5 -2 6 -1s0 3 -2 5l-82 93c49 32 123 84 131 88z" />
    <glyph glyph-name="ion-eye-disabled" unicode="&#xf306;" 
d="M344 290c41 -27 76 -66 104 -100c-51 -54 -124 -135 -224 -135c-36 0 -65 8 -92 22l-77 -77l-23 23l71 71c-36 25 -68 61 -103 98c78 85 142 137 224 137c34 0 64 -9 92 -23l77 78l23 -23zM134 192c0 -19 6 -36 16 -51l27 27c-4 7 -5 15 -5 24c0 29 23 53 52 53h8
c-5 -6 -8 -13 -8 -21c0 -3 0 -5 1 -8l51 50c-15 11 -33 17 -52 17c-49 0 -90 -41 -90 -91zM224 101c49 0 90 41 90 91c0 19 -6 37 -16 52l-50 -51c3 -1 5 -1 8 -1c8 0 14 3 20 7v-7c0 -29 -23 -53 -52 -53c-9 0 -17 2 -24 6l-28 -27c15 -11 33 -17 52 -17z" />
    <glyph glyph-name="ion-eye" unicode="&#xf133;" 
d="M224 320c99 0 172 -70 224 -129c-51 -50 -124 -127 -224 -127s-157 60 -224 128c78 79 142 128 224 128zM224 101c49 0 90 41 90 91s-41 91 -90 91s-90 -41 -90 -91s41 -91 90 -91zM224 224c0 -18 14 -32 32 -32c8 0 14 3 20 7v-7c0 -29 -23 -53 -52 -53s-52 24 -52 53
s23 53 52 53h8c-5 -6 -8 -13 -8 -21z" />
    <glyph glyph-name="ion-female" unicode="&#xf278;" horiz-adv-x="256" 
d="M160 164v-68h64v-64h-64v-64h-64v64h-64v64h64v68c-55 14 -96 64 -96 124c0 71 57 128 128 128s128 -57 128 -128c0 -60 -41 -110 -96 -124zM128 208c44 0 80 36 80 80s-36 80 -80 80s-80 -36 -80 -80s36 -80 80 -80z" />
    <glyph glyph-name="ion-filing" unicode="&#xf134;" horiz-adv-x="384" 
d="M317 319c12 0 19 0 19 -20v-28h-288v28c0 20 8 20 20 20h249zM269 352c13 0 19 -1 19 -19h-192c0 18 7 19 20 19h153zM368 278c13 -8 17 -17 15 -41l-17 -184c-4 -21 -16 -21 -24 -21h-300c-8 0 -20 0 -24 21l-17 185c-3 26 1 31 15 40l15 10v-32h321v32z" />
    <glyph glyph-name="ion-film-marker" unicode="&#xf135;" horiz-adv-x="416" 
d="M400 240c9 0 16 -7 16 -15v-210c0 -8 -7 -15 -16 -15h-384c-9 0 -16 7 -16 15v210c0 8 6 14 13 15c-2 2 -3 4 -4 7l-9 45c-2 8 5 16 13 18l370 74c8 2 16 -4 18 -12l9 -46c2 -8 -4 -16 -12 -18l-342 -68h344zM257 46l-20 58l51 36h-62l-20 58l-19 -58h-63l51 -36l-19 -58
l50 36z" />
    <glyph glyph-name="ion-fireball" unicode="&#xf319;" horiz-adv-x="320" 
d="M297 210c14 -24 23 -52 23 -82c0 -33 -10 -63 -26 -88v0v0c-29 -43 -78 -72 -134 -72c-17 0 -32 1 -46 7s-25 13 -33 25c-11 16 -17 28 -21 52c-6 -25 2 -48 9 -60c-43 26 -69 71 -69 125v4c5 78 65 109 90 151c8 14 13 30 10 48c11 -9 15 -25 15 -39
c0 -16 -3 -29 -3 -29c4 8 7 18 9 31c6 35 2 85 -37 132l-1 1s7 0 18 -3c95 -16 169 -91 184 -186c2 -12 3 -23 3 -35c0 -16 -2 -32 -5 -47c10 23 13 43 14 55v10z" />
    <glyph glyph-name="ion-flag" unicode="&#xf279;" horiz-adv-x="384" 
d="M362 266c0 0 12 2 22 6c0 -16 -7 -32 -9 -36c-28 -50 -99 -123 -181 -84c-65 31 -92 30 -117 24c-1 0 -2 -1 -3 -1c-3 -1 -15 -5 -26 -1v197c0 16 14 31 33 35c39 7 106 5 148 -74c39 -74 97 -72 133 -66zM24 416c4 0 8 -4 8 -8v-432c0 -4 -4 -8 -8 -8h-16
c-4 0 -8 4 -8 8v432c0 4 4 8 8 8h16z" />
    <glyph glyph-name="ion-flame" unicode="&#xf31a;" horiz-adv-x="256" 
d="M1 128c-11 109 72 224 159 288c-26 -145 97 -142 96 -288c-1 -120 -105 -160 -128 -160s-114 26 -127 160zM88 80c0 -44 40 -80 40 -80s41 36 41 80s-41 80 -41 80s-40 -36 -40 -80z" />
    <glyph glyph-name="ion-flash-off" unicode="&#xf136;" 
d="M115 -4c-69 38 -115 112 -115 196c0 124 100 224 224 224c24 0 47 -4 68 -11c2 -1 3 -1 5 -2c12 -4 24 -9 35 -15v0c69 -38 116 -112 116 -196c0 -124 -100 -224 -224 -224c-24 0 -47 4 -68 11c-2 1 -3 1 -5 2c-12 4 -24 8 -35 14zM86 291c-20 -28 -32 -62 -32 -99
c0 -65 36 -121 90 -150c6 -3 13 -7 19 -9c2 -1 3 -1 5 -2c9 -3 19 -5 29 -7c9 -2 18 -2 27 -2c37 0 71 12 99 32l-52 53l36 40l55 -54c20 28 32 62 32 99c0 66 -37 123 -91 151c-6 3 -12 6 -18 8c-2 1 -3 1 -5 2c-9 3 -19 5 -29 7c-9 2 -18 2 -27 2c-37 0 -72 -12 -100 -32
l53 -52l-36 -41zM178 58l38 113h-85l139 155l-38 -113h85z" />
    <glyph glyph-name="ion-flash" unicode="&#xf137;" horiz-adv-x="320" 
d="M0 160l224 256l-51 -192h147l-224 -256l51 192h-147z" />
    <glyph glyph-name="ion-folder" unicode="&#xf139;" horiz-adv-x="384" 
d="M366 256c18 0 19 -7 18 -18l-12 -186c-1 -11 -3 -20 -21 -20h-317c-18 0 -20 9 -21 20l-13 184c-1 11 0 20 18 20h348zM362 305l2 -33h-344c0 6 4 46 6 63c2 18 8 17 25 17h75c28 0 23 0 37 -15c16 -18 19 -17 41 -17h143c11 0 15 -3 15 -15z" />
    <glyph glyph-name="ion-fork-repo" unicode="&#xf2c0;" horiz-adv-x="320" 
d="M320 368v-64h-48v-48h-64v48h-48v64h48v48h64v-48h48zM208 208h64v-5v0c0 -43 -7 -70 -38 -95c-23 -19 -51 -20 -75 -22c-9 -1 -18 -2 -26 -3c-6 -1 -13 -5 -20 -10c9 -11 15 -25 15 -41c0 -35 -29 -64 -64 -64s-64 29 -64 64c0 24 13 44 32 55v210c-19 11 -32 31 -32 55
c0 35 29 64 64 64s64 -29 64 -64c0 -24 -13 -44 -32 -55v-160c8 4 18 7 27 9c11 2 21 2 31 3c17 1 33 3 40 9c10 8 14 11 14 50zM64 384c-18 0 -32 -14 -32 -32s14 -32 32 -32s32 14 32 32s-14 32 -32 32zM64 0c18 0 32 14 32 32s-14 32 -32 32s-32 -14 -32 -32
s14 -32 32 -32z" />
    <glyph glyph-name="ion-fork" unicode="&#xf27a;" horiz-adv-x="128" 
d="M78 299v0v0v0zM128 282c0 -26 -15 -48 -37 -58c-12 -6 -11 -11 -11 -11s16 -200 16 -213s-3 -18 -9 -24s-15 -8 -23 -8v0v0c-8 0 -16 2 -22 8s-10 13 -10 24s16 213 16 213s0 6 -11 11c-22 10 -37 32 -37 58c0 43 15 93 24 134h8v-117c0 -6 3 -11 9 -11s9 4 10 10v1
l9 117h8l10 -117v-1c1 -6 3 -10 9 -10s9 5 9 11v117h8v0c9 -40 24 -91 24 -134z" />
    <glyph glyph-name="ion-forward" unicode="&#xf13a;" horiz-adv-x="384" 
d="M224 150c-102 0 -171 -9 -224 -102c0 0 37 208 224 208v80l160 -144l-160 -134v92z" />
    <glyph glyph-name="ion-funnel" unicode="&#xf31b;" 
d="M224 416c124 0 224 -36 224 -80c0 -8 -3 -15 -9 -22v0c-35 -43 -151 -179 -151 -218v-4v-83v0c0 -23 -29 -41 -64 -41s-64 18 -64 41v0v87c0 39 -117 177 -149 216v0c-7 8 -11 16 -11 24c0 44 100 80 224 80zM224 288c92 0 176 22 176 48s-83 48 -176 48
s-176 -22 -176 -48s84 -48 176 -48z" />
    <glyph glyph-name="ion-gear-a" unicode="&#xf13d;" horiz-adv-x="384" 
d="M347 192c0 -24 15 -43 37 -56c-4 -13 -10 -26 -16 -38c-25 6 -45 -3 -62 -20s-22 -37 -16 -62c-12 -6 -25 -12 -38 -16c-13 22 -36 37 -60 37s-47 -15 -60 -37c-13 4 -27 10 -39 16c6 25 2 45 -15 62s-37 21 -62 15c-6 12 -12 26 -16 39c22 13 37 36 37 60s-15 43 -37 56
c4 13 9 26 16 38c25 -6 45 3 62 20s21 37 15 62c12 6 26 12 39 16c13 -22 36 -37 60 -37s47 15 60 37c13 -4 27 -10 39 -16c-6 -25 -2 -45 15 -62s37 -26 62 -20c6 -12 12 -25 16 -38c-22 -13 -37 -32 -37 -56zM192 94c54 0 98 44 98 98s-44 98 -98 98s-98 -44 -98 -98
s44 -98 98 -98z" />
    <glyph glyph-name="ion-gear-b" unicode="&#xf13e;" horiz-adv-x="384" 
d="M384 154h-44c-4 -14 -10 -27 -17 -39l32 -32l-54 -54l-33 32c-12 -7 -24 -11 -38 -15v-46h-76v46c-13 4 -26 8 -38 15l-33 -32l-54 54l32 32c-7 12 -13 25 -17 39h-44v76h43c4 14 9 29 16 41l-30 30l54 54l29 -29c13 8 27 13 42 17v41h76v-41c15 -4 29 -9 42 -17l29 29
l54 -54l-30 -30c7 -12 13 -27 16 -41h43v-76zM192 138c30 0 54 24 54 54s-24 54 -54 54s-54 -24 -54 -54s24 -54 54 -54z" />
    <glyph glyph-name="ion-grid" unicode="&#xf13f;" horiz-adv-x="320" 
d="M64 295c0 -4 -3 -7 -7 -7h-50c-4 0 -7 3 -7 7v50c0 4 3 7 7 7h50c4 0 7 -3 7 -7v-50zM192 295c0 -4 -3 -7 -7 -7h-50c-4 0 -7 3 -7 7v50c0 4 3 7 7 7h50c4 0 7 -3 7 -7v-50zM320 295c0 -4 -3 -7 -7 -7h-50c-4 0 -7 3 -7 7v50c0 4 3 7 7 7h50c4 0 7 -3 7 -7v-50zM64 167
c0 -4 -3 -7 -7 -7h-50c-4 0 -7 3 -7 7v50c0 4 3 7 7 7h50c4 0 7 -3 7 -7v-50zM192 167c0 -4 -3 -7 -7 -7h-50c-4 0 -7 3 -7 7v50c0 4 3 7 7 7h50c4 0 7 -3 7 -7v-50zM320 167c0 -4 -3 -7 -7 -7h-50c-4 0 -7 3 -7 7v50c0 4 3 7 7 7h50c4 0 7 -3 7 -7v-50zM64 39
c0 -4 -3 -7 -7 -7h-50c-4 0 -7 3 -7 7v50c0 4 3 7 7 7h50c4 0 7 -3 7 -7v-50zM192 39c0 -4 -3 -7 -7 -7h-50c-4 0 -7 3 -7 7v50c0 4 3 7 7 7h50c4 0 7 -3 7 -7v-50zM320 39c0 -4 -3 -7 -7 -7h-50c-4 0 -7 3 -7 7v50c0 4 3 7 7 7h50c4 0 7 -3 7 -7v-50z" />
    <glyph glyph-name="ion-hammer" unicode="&#xf27b;" horiz-adv-x="320" 
d="M314 416c3 0 6 -3 6 -6v-84c0 -3 -3 -6 -6 -6h-52c-3 0 -6 3 -6 6v14c-6 5 -16 9 -22 7c-7 -2 -23 -13 -30 -25s-6 -28 -6 -66l8 -2c5 -1 7 -6 7 -9v-70c0 -95 11 -201 11 -201c0 -3 -3 -6 -6 -6h-84c-3 0 -6 3 -6 6c0 0 11 106 11 201v70c0 3 3 8 7 9l7 2
c0 43 -5 58 -22 74c-18 16 -41 19 -63 17s-51 -35 -58 -45s-10 2 -10 11c1 16 22 60 72 81s91 22 102 22s27 -1 38 -3s16 -18 26 -18c7 0 14 5 18 9v6c0 3 3 6 6 6h52z" />
    <glyph glyph-name="ion-happy-outline" unicode="&#xf3c6;" 
d="M355 158c8 -4 11 -13 7 -21c-24 -46 -78 -73 -138 -73c-62 0 -118 29 -139 74c-4 8 0 17 8 21c2 1 5 1 7 1c6 0 11 -3 14 -9c16 -34 60 -55 110 -55c49 0 92 21 110 56c3 5 8 8 14 8c3 0 5 -1 7 -2zM381 217c5 -7 4 -17 -4 -22c-3 -2 -6 -3 -10 -3c-5 0 -11 2 -14 6
s-7 10 -17 10s-14 -6 -17 -10s-9 -6 -14 -6c-4 0 -7 1 -10 3c-8 6 -9 15 -3 22c11 14 23 23 44 23s35 -9 45 -23zM157 217c5 -7 4 -17 -4 -22c-3 -2 -6 -3 -10 -3c-5 0 -11 2 -14 6s-7 10 -17 10s-14 -6 -17 -10s-9 -6 -14 -6c-4 0 -7 1 -10 3c-8 6 -9 15 -3 22
c11 14 23 23 44 23s35 -9 45 -23zM224 416c124 0 224 -100 224 -224s-100 -224 -224 -224s-224 100 -224 224s100 224 224 224zM360 56c36 36 56 85 56 136s-20 100 -56 136s-85 56 -136 56s-100 -20 -136 -56s-56 -85 -56 -136s20 -100 56 -136s85 -56 136 -56
s100 20 136 56z" />
    <glyph glyph-name="ion-happy" unicode="&#xf31c;" 
d="M224 416c124 0 224 -100 224 -224s-100 -224 -224 -224s-224 100 -224 224s100 224 224 224zM71 195c3 -2 6 -3 10 -3c5 0 11 2 14 6s7 10 17 10s14 -6 17 -10s9 -6 14 -6c4 0 7 1 10 3c8 5 9 15 4 22c-10 14 -24 23 -45 23s-33 -9 -44 -23c-6 -7 -5 -16 3 -22zM362 137
c4 8 1 17 -7 21c-2 1 -4 2 -7 2c-6 0 -11 -3 -14 -8c-18 -35 -61 -56 -110 -56c-50 0 -94 21 -110 55c-3 6 -8 9 -14 9c-2 0 -5 0 -7 -1c-8 -4 -12 -13 -8 -21c21 -45 77 -74 139 -74c60 0 114 27 138 73zM377 195c8 5 9 15 4 22c-10 14 -24 23 -45 23s-33 -9 -44 -23
c-6 -7 -5 -16 3 -22c3 -2 6 -3 10 -3c5 0 11 2 14 6s7 10 17 10s14 -6 17 -10s9 -6 14 -6c4 0 7 1 10 3z" />
    <glyph glyph-name="ion-headphone" unicode="&#xf140;" horiz-adv-x="384" 
d="M383 210c3 -51 -3 -130 -13 -162c-20 -67 -40 -80 -72 -80s-58 27 -58 59v106c0 33 23 59 53 59c18 0 34 -9 44 -24c0 0 11 7 13 22s4 34 -5 64s-21 19 -36 38c-2 3 -5 7 -8 10l-10 10c-2 2 -3 3 -5 4c-11 9 -21 17 -34 23c-19 9 -39 13 -60 13s-42 -4 -61 -13
c-13 -6 -22 -14 -33 -23c-2 -1 -3 -2 -5 -4l-10 -10s-6 -7 -8 -10c-15 -19 -27 -8 -36 -38c-9 -31 -7 -49 -5 -64s13 -22 13 -22c10 15 26 24 44 24c30 0 53 -27 53 -59v-106c0 -32 -26 -59 -58 -59s-52 13 -72 80c-10 32 -16 111 -13 162c3 60 22 108 56 145v0
c8 8 15 16 24 23s19 13 29 18c25 13 53 20 82 20s57 -7 82 -20c10 -5 19 -11 28 -18s17 -15 25 -23v0c34 -37 53 -85 56 -145z" />
    <glyph glyph-name="ion-heart-broken" unicode="&#xf31d;" horiz-adv-x="416" 
d="M181 160c0 -36 -2 -71 4 -107c2 -10 2 -20 2 -31l-153 159c-45 47 -45 124 0 171c40 41 103 43 144 3c-2 -15 -3 -31 -3 -46c-18 -14 -40 -21 -56 -39l11 7c17 11 15 8 35 14c3 1 8 3 11 5c0 -1 -1 -5 -1 -6c1 -20 11 -39 15 -60c0 -5 1 -10 -1 -15c-8 -17 -7 -37 -8 -55
zM274 147c8 -18 23 -29 38 -39l-104 -108l-17 18c0 13 -4 26 -4 38c-2 48 10 94 21 142v0c1 -1 2 -1 3 -1c30 -6 52 -24 63 -50zM382 352c46 -47 46 -124 0 -171l-68 -70c-28 24 -42 54 -65 81c-12 13 -26 23 -41 32c-3 13 -8 26 -11 39c-3 12 14 21 16 31c3 12 3 26 3 39
l19 19c40 42 107 42 147 0z" />
    <glyph glyph-name="ion-heart" unicode="&#xf141;" horiz-adv-x="416" 
d="M382 352c46 -47 46 -124 0 -171l-174 -181l-174 181c-46 47 -46 124 0 171c40 42 107 42 147 0l27 -28l28 28c40 42 106 42 146 0z" />
    <glyph glyph-name="ion-help-buoy" unicode="&#xf27c;" 
d="M224 416c124 0 224 -100 224 -224s-100 -224 -224 -224s-224 100 -224 224s100 224 224 224zM402 264c-10 24 -23 45 -42 64s-41 32 -65 42l-19 -61c14 -6 27 -15 38 -26s21 -24 27 -38zM224 96c53 0 96 43 96 96s-43 96 -96 96s-96 -43 -96 -96s43 -96 96 -96zM88 328
c-19 -19 -32 -41 -42 -65l61 -19c6 14 15 27 26 38s24 21 38 27l-19 61c-24 -10 -45 -23 -64 -42zM46 120c10 -24 23 -45 42 -64s41 -32 65 -42l19 61c-14 6 -27 15 -38 26s-21 24 -27 38zM360 56c19 19 32 41 42 65l-61 19c-6 -14 -15 -27 -26 -38s-24 -21 -38 -27l19 -61
c24 10 45 23 64 42z" />
    <glyph glyph-name="ion-help-circled" unicode="&#xf142;" 
d="M224 416c124 0 224 -100 224 -224s-100 -224 -224 -224s-224 100 -224 224s100 224 224 224zM244 89c1 18 -12 31 -29 31c-16 0 -30 -11 -30 -29s12 -30 28 -30c17 0 31 10 31 28zM293 217c7 10 12 22 12 36c0 23 -9 40 -25 52c-17 13 -37 18 -62 18
c-19 0 -34 -4 -47 -13c-19 -13 -28 -34 -28 -68h49c0 9 -1 19 4 27s13 15 26 15s19 -3 25 -11c5 -7 8 -15 8 -23c0 -7 -4 -14 -8 -20c-2 -4 -6 -7 -10 -10c0 0 -26 -15 -35 -30c-7 -11 -9 -24 -10 -41c0 -1 0 -4 4 -4h39s5 3 5 4c0 6 1 15 2 19c2 7 6 12 12 17l14 9
c12 9 21 17 25 23z" />
    <glyph glyph-name="ion-help" unicode="&#xf143;" horiz-adv-x="256" 
d="M217 371c25 -19 39 -46 39 -83c0 -22 -8 -42 -19 -57c-7 -9 -21 -21 -40 -36l-21 -14c-10 -8 -17 -18 -20 -28c-2 -6 -3 -19 -3 -29c0 -2 -1 -6 -7 -6h-62c-7 0 -7 3 -7 5c1 26 4 49 15 66c15 23 57 48 57 48c6 5 11 9 15 15c7 10 12 21 12 32c0 13 -3 26 -11 36
c-10 12 -21 18 -41 18s-32 -11 -40 -24s-7 -29 -7 -43h-77c0 54 14 88 44 108c20 14 45 20 75 20c39 0 70 -7 98 -28zM114 78c27 -1 47 -20 46 -48s-22 -46 -49 -45c-26 1 -46 19 -45 47s22 47 48 46z" />
    <glyph glyph-name="ion-home" unicode="&#xf144;" horiz-adv-x="384" 
d="M384 160h-48v-160h-96v128h-96v-128h-96v160h-48l192 224z" />
    <glyph glyph-name="ion-icecream" unicode="&#xf27d;" horiz-adv-x="320" 
d="M32 192h256l-128 -224zM307 275c8 -5 13 -13 13 -23c0 -16 -14 -28 -30 -28h-4h-252h-4c-16 0 -30 13 -30 28c0 10 6 18 14 23c1 0 1 2 2 2c4 3 7 7 8 12v1c-2 6 -2 12 -2 18c0 42 34 76 76 76c8 0 16 -2 23 -4c-3 -12 -4 -31 -4 -31c2 15 11 29 11 29c18 23 46 38 77 38
c53 0 96 -43 96 -96c0 -11 -2 -21 -5 -30v-1c0 -4 4 -9 8 -12c1 0 2 -2 3 -2z" />
    <glyph glyph-name="ion-image" unicode="&#xf147;" 
d="M336 224c-26 0 -48 22 -48 48s22 48 48 48s48 -22 48 -48s-22 -48 -48 -48zM420 384c16 0 28 -12 28 -28v-328c0 -16 -12 -28 -28 -28h-392c-16 0 -28 12 -28 28v328c0 16 12 28 28 28h392zM317 186l99 -106v260c0 7 -6 12 -13 12h-358c-7 0 -12 -5 -13 -12v-260l126 152
c4 4 10 8 17 8s13 -2 17 -7l54 -59l4 -4c3 -2 7 -4 11 -4s8 2 12 5l18 16c4 3 8 5 13 5s10 -2 13 -6z" />
    <glyph glyph-name="ion-images" unicode="&#xf148;" 
d="M426 308c13 -1 23 -12 22 -24l-14 -263c-1 -13 -12 -22 -25 -21l-330 16c-13 1 -23 10 -22 23l2 46l-15 -1c-12 -1 -22 7 -23 18l-21 236c-1 11 7 21 19 22l296 24c12 1 22 -7 23 -18l5 -54zM71 302c1 12 11 22 24 22l219 -11l-2 31h-1v1c-1 5 -5 8 -10 8l-261 -22
c-5 0 -10 -4 -10 -9v0v-1l16 -178l18 25zM405 66l10 198v1v0c0 6 -5 10 -11 10l-58 3l-29 2l-204 9c-6 0 -11 -4 -12 -9v0v-1l-3 -63l-7 -128v-7l6 7l102 109c4 4 8 6 14 6s11 -3 14 -7l43 -49l3 -3c2 -2 6 -4 10 -4s5 1 9 3l17 12c4 3 7 4 11 4s9 -2 11 -5l27 -33zM341 186
c-20 0 -35 15 -35 35s16 35 35 35c20 0 35 -16 35 -35s-16 -35 -35 -35z" />
    <glyph glyph-name="ion-information-circled" unicode="&#xf149;" 
d="M448 195c2 -124 -97 -225 -221 -227s-225 97 -227 221s97 225 221 227s225 -97 227 -221zM224 336c-18 0 -32 -14 -32 -32s14 -32 32 -32s32 14 32 32s-14 32 -32 32zM268 53v11h-22v172h-66v-12h22v-160h-22v-11h88z" />
    <glyph glyph-name="ion-information" unicode="&#xf14a;" horiz-adv-x="128" 
d="M96 0h32v-16h-128v16h32v240h-32v16h96v-256zM64 304c-27 0 -48 21 -48 48s21 48 48 48s48 -21 48 -48s-21 -48 -48 -48z" />
    <glyph glyph-name="ion-ionic" unicode="&#xf14b;" horiz-adv-x="416" 
d="M376 315c25 -34 40 -77 40 -123c0 -115 -93 -208 -208 -208s-208 93 -208 208s93 208 208 208c46 0 89 -15 123 -40c5 3 11 5 18 5c18 0 32 -14 32 -32c0 -7 -2 -13 -5 -18zM344 56c18 18 31 38 41 61c10 24 15 49 15 75s-5 51 -15 75c-6 13 -13 26 -21 38
c-4 -2 -10 -4 -15 -4c-18 0 -32 14 -32 32c0 5 2 11 4 15c-12 8 -25 15 -38 21c-24 10 -49 15 -75 15s-51 -5 -75 -15c-23 -10 -43 -23 -61 -41s-31 -38 -41 -61c-10 -24 -15 -49 -15 -75s5 -51 15 -75c10 -23 23 -43 41 -61s38 -31 61 -41c24 -10 49 -15 75 -15s51 5 75 15
c23 10 43 23 61 41zM112 192c0 53 43 96 96 96s96 -43 96 -96s-43 -96 -96 -96s-96 43 -96 96z" />
    <glyph glyph-name="ion-ipad" unicode="&#xf1f9;" horiz-adv-x="288" 
d="M0 375c0 5 4 9 9 9h270c5 0 9 -4 9 -9v-366c0 -5 -4 -9 -9 -9h-270c-5 0 -9 4 -9 9v366zM144 10c8 0 14 6 14 14s-7 14 -14 14c-8 0 -14 -6 -14 -14s6 -14 14 -14zM32 329v-275c0 -4 3 -6 6 -6h211c3 0 7 2 7 6v275c0 4 -4 7 -7 7h-211c-3 0 -6 -3 -6 -7z" />
    <glyph glyph-name="ion-iphone" unicode="&#xf1fa;" horiz-adv-x="192" 
d="M168 384c13 0 24 -11 24 -24v-336c0 -13 -11 -24 -24 -24h-144c-13 0 -24 11 -24 24v336c0 13 11 24 24 24h144zM80 348v0c0 -2 2 -4 4 -4h24c2 0 4 2 4 4v0c0 2 -2 4 -4 4h-24c-2 0 -4 -2 -4 -4zM68 352c-2 0 -4 -2 -4 -4s2 -4 4 -4s4 2 4 4s-2 4 -4 4zM96 16
c9 0 16 7 16 16s-7 16 -16 16s-16 -7 -16 -16s7 -16 16 -16zM176 64v256h-160v-256h160z" />
    <glyph glyph-name="ion-ipod" unicode="&#xf1fb;" horiz-adv-x="224" 
d="M112 137c18 0 32 -14 32 -32s-14 -32 -32 -32s-32 14 -32 32s14 32 32 32zM196 384c15 0 28 -12 28 -28v-328c0 -16 -13 -28 -28 -28h-168c-15 0 -28 12 -28 28v328c0 16 13 28 28 28h168zM112 32c40 0 72 32 72 72s-32 72 -72 72s-72 -32 -72 -72s32 -72 72 -72z
M192 221v118c-1 7 -6 12 -12 13h-136c-7 -1 -12 -7 -12 -15v-114c0 -8 6 -15 14 -15h131c8 0 14 5 15 13z" />
    <glyph glyph-name="ion-key" unicode="&#xf296;" horiz-adv-x="192" 
d="M144 147c28 -17 48 -48 48 -83c0 -53 -43 -96 -96 -96s-96 43 -96 96c0 36 19 67 48 84c0 0 7 16 12 41c0 4 11 6 11 12v20c0 5 -7 9 -7 11v8v8c0 2 0 4 1 6c0 1 1 1 1 2l2 1l4 4v1c2 2 3 4 3 6c0 1 1 8 1 9c0 3 -2 6 -4 8l-1 1l-4 4v0l-1 1v0c-2 2 -3 5 -3 8v7
c0 3 2 7 4 9v0l5 5v0c2 2 4 3 4 6v24c0 3 -2 6 -4 8v1l-4 4l-1 1c-2 2 -3 5 -3 8v18c0 11 0 19 9 23c3 1 14 3 23 3c20 0 30 -8 32 -36c0 0 7 -81 9 -143s7 -90 7 -90zM96 0c18 0 32 14 32 32s-14 32 -32 32s-32 -14 -32 -32s14 -32 32 -32z" />
    <glyph glyph-name="ion-knife" unicode="&#xf297;" horiz-adv-x="64" 
d="M62 416c2 0 2 -1 2 -6v-412c0 -15 -10 -30 -24 -30v0v0c-14 0 -24 15 -24 30c1 19 14 83 16 130v0c1 30 -32 31 -32 70c0 134 35 191 54 214c2 2 5 4 8 4z" />
    <glyph glyph-name="ion-laptop" unicode="&#xf1fc;" horiz-adv-x="512" 
d="M480 342v-262h-448v262c0 6 4 10 10 10h428c6 0 10 -4 10 -10zM448 112v208h-384v-208h384zM0 59v5h512v-5c-70 -20 -116 -27 -256 -27s-186 7 -256 27z" />
    <glyph glyph-name="ion-leaf" unicode="&#xf1fd;" horiz-adv-x="422" 
d="M412 69c18 -3 10 -41 -5 -39c0 0 -21 -1 -63 12c0 0 -16 -19 -39 -30c-26 -12 -118 -33 -197 38c-108 97 -120 354 -100 333c86 -90 197 -47 270 -106c55 -44 88 -127 77 -192c0 0 5 -8 57 -16zM316 65c5 5 10 16 10 24c-161 52 -252 160 -252 160s104 -143 242 -184z
" />
    <glyph glyph-name="ion-levels" unicode="&#xf298;" horiz-adv-x="350" 
d="M46 349c11 -5 18 -16 18 -29s-7 -24 -18 -29v-275c0 -9 -7 -16 -16 -16s-16 7 -16 16v278c-8 6 -14 15 -14 26s6 20 14 26v22c0 9 7 16 16 16s16 -7 16 -16v-19zM142 155c9 -6 15 -16 15 -27s-6 -21 -15 -27v-85c0 -9 -7 -16 -16 -16s-16 7 -16 16v84
c-10 5 -17 16 -17 28s7 23 17 28v212c0 9 7 16 16 16s16 -7 16 -16v-213zM238 285c10 -6 16 -16 16 -28s-6 -22 -16 -28v-213c0 -9 -7 -16 -16 -16s-16 7 -16 16v213c-10 6 -16 16 -16 28s6 22 16 28v83c0 9 7 16 16 16s16 -7 16 -16v-83zM350 65c0 -12 -6 -22 -16 -28v-21
c0 -9 -7 -16 -16 -16s-16 7 -16 16v21c-10 6 -16 16 -16 28s6 22 16 28v275c0 9 7 16 16 16s16 -7 16 -16v-275c10 -6 16 -16 16 -28z" />
    <glyph glyph-name="ion-link" unicode="&#xf1fe;" horiz-adv-x="384" 
d="M192 240v0v0v0zM304 288c44 0 80 -36 80 -80v-32c0 -44 -36 -80 -80 -80h-112c-33 0 -60 20 -73 48c-4 10 -7 20 -7 32v32h48v-32c0 -18 14 -32 32 -32h112c18 0 32 14 32 32v32c0 18 -14 32 -32 32v0h-16c-6 31 -32 48 -32 48h48zM266 240c4 -10 6 -21 6 -32v-32v0h-48
v0v32c0 18 -14 32 -32 32v0h-112c-18 0 -32 -14 -32 -32v-32c0 -18 14 -32 32 -32h16c6 -31 32 -48 32 -48h-48c-44 0 -80 36 -80 80v32c0 44 36 80 80 80h112c33 0 62 -20 74 -48z" />
    <glyph glyph-name="ion-load-a" unicode="&#xf29a;" horiz-adv-x="384" 
d="M144 352c0 35 29 64 64 64s64 -29 64 -64s-29 -64 -64 -64s-64 29 -64 64zM0 192c0 27 21 48 48 48s48 -21 48 -48s-21 -48 -48 -48s-48 21 -48 48zM312 304c0 4 4 8 8 8s8 -4 8 -8s-4 -8 -8 -8s-8 4 -8 8zM132 340c20 -20 20 -52 0 -72s-52 -20 -72 0s-20 52 0 72
s52 20 72 0zM352 192c0 9 7 16 16 16s16 -7 16 -16s-7 -16 -16 -16s-16 7 -16 16zM297 79c0 13 11 24 24 24s24 -11 24 -24s-11 -24 -24 -24s-24 11 -24 24zM176 32c0 18 14 32 32 32s32 -14 32 -32s-14 -32 -32 -32s-32 14 -32 32zM56 80c0 22 18 40 40 40s40 -18 40 -40
s-18 -40 -40 -40s-40 18 -40 40z" />
    <glyph glyph-name="ion-load-b" unicode="&#xf29b;" 
d="M256 288c0 -18 -14 -32 -32 -32v0c-18 0 -32 14 -32 32v96c0 18 14 32 32 32v0c18 0 32 -14 32 -32v-96zM224 128v0c18 0 32 -14 32 -32v-96c0 -18 -14 -32 -32 -32s-32 14 -32 32v96c0 18 14 32 32 32zM416 224v0c18 0 32 -14 32 -32s-14 -32 -32 -32h-96
c-18 0 -32 14 -32 32s14 32 32 32h96zM128 224v0c18 0 32 -14 32 -32s-14 -32 -32 -32h-96c-18 0 -32 14 -32 32s14 32 32 32h96zM314 237c-12 -12 -33 -12 -45 0v0c-12 12 -12 34 0 46l68 67c12 12 33 12 45 0v0c12 -12 12 -33 0 -45zM179 147v0c12 -12 12 -33 0 -46
l-68 -67c-12 -12 -33 -12 -45 0s-12 33 0 45l67 68c12 12 34 12 46 0zM382 79v0c12 -12 12 -33 0 -45s-33 -12 -45 0l-68 68c-12 12 -12 33 0 45s33 12 45 0zM179 282v0c12 -12 12 -33 0 -45s-34 -12 -46 0l-67 68c-12 12 -12 33 0 45s33 12 45 0z" />
    <glyph glyph-name="ion-load-c" unicode="&#xf29c;" 
d="M448 222c0 -3 0 -6 -1 -9c-4 -8 -15 -12 -23 -7c-4 2 -6 7 -7 11c-1 5 -1 9 -2 14c-4 20 -12 40 -22 58c-12 21 -28 41 -47 56c-18 15 -40 26 -62 33c-21 6 -42 9 -64 9h-4c-3 0 -6 -1 -9 -1c-6 0 -14 -1 -20 -2c-13 -2 -25 -6 -37 -11c-21 -8 -40 -20 -57 -35
s-31 -33 -42 -52c-12 -22 -20 -45 -24 -70c-2 -11 -2 -23 -2 -34c0 -6 0 -11 1 -16c1 -6 2 -13 3 -19c5 -24 14 -47 28 -67c13 -20 29 -38 48 -52c20 -15 42 -26 65 -33c25 -7 50 -9 76 -7c25 2 50 9 73 20c11 5 22 12 32 19s19 15 27 24c4 4 8 9 12 14s7 10 10 15
c6 10 12 20 17 31c4 8 8 16 11 25c2 4 3 9 4 13s1 7 2 11c1 -9 1 -18 -1 -26c-1 -5 -2 -11 -4 -16c-1 -5 -3 -10 -5 -15c-4 -10 -8 -19 -13 -28c-6 -11 -12 -21 -20 -30s-16 -18 -25 -26c-18 -15 -40 -27 -62 -36c-23 -9 -48 -14 -73 -15s-51 3 -75 11c-23 7 -45 19 -65 33
c-19 14 -36 31 -50 50c-7 10 -13 20 -18 31s-9 21 -13 33c-6 18 -9 37 -10 56c-1 20 1 39 5 58c5 24 15 47 28 68c12 19 26 35 42 50s35 27 55 36c23 11 48 19 74 21c10 1 19 1 29 1c13 0 26 -2 38 -4c24 -5 47 -14 68 -26s41 -29 57 -48c15 -18 27 -37 36 -58
c4 -10 7 -21 10 -32c2 -8 5 -17 6 -26z" />
    <glyph glyph-name="ion-load-d" unicode="&#xf29d;" horiz-adv-x="384" 
d="M368 208c9 0 16 -7 16 -16s-7 -16 -16 -16h-80c-9 0 -16 7 -16 16s7 16 16 16h80zM112 192c0 -9 -7 -16 -16 -16h-80c-9 0 -16 7 -16 16s7 16 16 16h80c9 0 16 -7 16 -16zM192 112c9 0 16 -7 16 -16v-80c0 -9 -7 -16 -16 -16s-16 7 -16 16v80c0 9 7 16 16 16zM192 384
c9 0 16 -7 16 -16v-80c0 -9 -7 -16 -16 -16s-16 7 -16 16v80c0 9 7 16 16 16zM261 232c-4 8 -2 18 6 22l69 40c8 4 18 2 22 -6s2 -18 -6 -22l-69 -40c-8 -4 -18 -2 -22 6zM123 152c4 -8 2 -18 -6 -22l-69 -40c-8 -4 -18 -2 -22 6s-2 18 6 22l69 40c8 4 18 2 22 -6zM254 117
l40 -69c4 -8 2 -18 -6 -22s-18 -2 -22 6l-40 69c-4 8 -2 18 6 22s18 2 22 -6zM118 352l40 -69c4 -8 2 -18 -6 -22s-18 -2 -22 6l-40 69c-4 8 -2 18 6 22s18 2 22 -6zM232 261c-8 4 -10 14 -6 22l40 69c4 8 14 10 22 6s10 -14 6 -22l-40 -69c-4 -8 -14 -10 -22 -6zM152 123
c8 -4 10 -14 6 -22l-40 -69c-4 -8 -14 -10 -22 -6s-10 14 -6 22l40 69c4 8 14 10 22 6zM352 118c8 -4 10 -14 6 -22s-14 -10 -22 -6l-69 40c-8 4 -10 14 -6 22s14 10 22 6zM32 266c-8 4 -10 14 -6 22s14 10 22 6l69 -40c8 -4 10 -14 6 -22s-14 -10 -22 -6z" />
    <glyph glyph-name="ion-location" unicode="&#xf1ff;" horiz-adv-x="239" 
d="M119 384c66 0 120 -54 120 -120c0 -115 -120 -264 -120 -264s-119 149 -119 264c0 66 53 120 119 120zM119 206c31 0 57 25 57 56s-26 57 -57 57s-56 -26 -56 -57s25 -56 56 -56z" />
    <glyph glyph-name="ion-lock-combination" unicode="&#xf4d4;" horiz-adv-x="384" 
d="M320 271c39 -35 64 -86 64 -143c0 -106 -86 -192 -192 -192s-192 86 -192 192c0 57 25 108 64 143v49c0 71 57 128 128 128s128 -57 128 -128v-49zM96 320v-26c28 16 61 26 96 26s68 -10 96 -26v26c0 53 -43 96 -96 96s-96 -43 -96 -96zM192 -32c88 0 160 72 160 160
s-72 160 -160 160s-160 -72 -160 -160s72 -160 160 -160zM192 272c80 0 144 -64 144 -144s-64 -144 -144 -144s-144 64 -144 144s64 144 144 144zM315 95c2 9 4 18 4 29h-7v7h8c0 11 -2 20 -5 30l-25 -7l-4 12l25 8c-4 10 -8 18 -14 26l-11 -8l-4 6l11 8c-6 8 -13 16 -21 22
l-15 -21l-11 8l15 20c-8 6 -17 11 -27 14l-4 -13l-6 2l5 13c-9 3 -20 5 -29 5v-13v-6h-16v6v13c-11 -1 -19 -2 -29 -5l4 -12l-6 -2l-4 12c-10 -3 -19 -8 -27 -14l15 -20l-10 -8l-15 21c-8 -6 -16 -14 -22 -22l11 -8l-4 -5l-10 8c-6 -8 -10 -17 -14 -27l24 -8l-5 -12l-25 7
c-3 -10 -3 -19 -3 -30h6v-7h-5c0 -11 2 -20 4 -29l24 7l4 -12l-24 -8c4 -10 8 -19 14 -27l9 7l4 -5l-9 -7c6 -8 13 -16 21 -22l15 21l10 -8l-15 -20c8 -5 17 -11 27 -14l3 11l7 -2l-4 -11c10 -3 18 -4 29 -5v13v6h16v-6v-13c9 1 19 2 29 5l-5 12l6 2l4 -12c10 3 19 8 27 14
l-15 20l11 8l15 -21c8 6 15 14 21 22l-11 7l4 6l10 -8c6 8 11 17 15 27l-25 8l4 12zM111 128c0 45 36 81 81 81s81 -36 81 -81s-36 -81 -81 -81s-81 36 -81 81z" />
    <glyph glyph-name="ion-locked" unicode="&#xf200;" horiz-adv-x="384" 
d="M22 -32c-12 0 -22 10 -22 22v212c0 12 10 22 22 22h3h19v31c0 42 17 87 43 115s64 46 105 46v0v0c41 0 79 -18 105 -46s43 -73 43 -115v-31h22c12 0 22 -10 22 -22v-212c0 -12 -10 -22 -22 -22h-340zM97 255v-31h17h155h18v31c0 27 -10 61 -28 80v0v1
c-18 19 -42 29 -67 29v0v0c-25 0 -49 -10 -67 -29v-1v0c-18 -19 -28 -53 -28 -80z" />
    <glyph glyph-name="ion-log-in" unicode="&#xf29e;" 
d="M224 416c124 0 224 -100 224 -224s-100 -224 -224 -224c-96 0 -177 60 -209 144h34c9 -20 23 -40 39 -56c36 -36 85 -56 136 -56s100 20 136 56s56 85 56 136s-20 100 -56 136s-85 56 -136 56s-100 -20 -136 -56c-16 -16 -30 -36 -39 -56h-34c32 84 113 144 209 144z
M175 124l52 52h-227v32h227l-52 52l22 23l91 -91l-91 -91z" />
    <glyph glyph-name="ion-log-out" unicode="&#xf29f;" 
d="M335 124l52 52h-227v32h227l-52 52l22 23l91 -91l-91 -91zM359 56c3 3 6 5 8 8h41c-40 -58 -108 -96 -184 -96c-124 0 -224 100 -224 224s100 224 224 224c76 0 144 -38 184 -96h-41c-2 3 -5 5 -8 8c-36 36 -84 56 -135 56s-100 -20 -136 -56s-56 -85 -56 -136
s20 -100 56 -136s85 -56 136 -56s99 20 135 56z" />
    <glyph glyph-name="ion-loop" unicode="&#xf201;" horiz-adv-x="334" 
d="M184 148v-58c49 8 86 50 86 102c0 16 -4 30 -10 44c-3 6 -5 12 -9 17l47 43c1 -1 2 -3 3 -4c21 -28 33 -62 33 -100v-4c-2 -72 -47 -131 -111 -154c-12 -4 -26 -8 -39 -9v-57l-76 67l-26 23l44 39zM0 196c2 72 48 133 113 155c12 4 24 7 37 8v57l76 -67l26 -23l-44 -39
l-59 -51l1 58c-49 -8 -86 -51 -86 -102c0 -16 4 -31 10 -45c3 -6 5 -11 9 -16l-47 -44c-1 2 -2 3 -3 5c-20 28 -33 63 -33 100v4z" />
    <glyph glyph-name="ion-magnet" unicode="&#xf2a0;" horiz-adv-x="384" 
d="M192 416c115 0 192 -78 192 -200c0 -49 -3 -77 -15 -128c-16 -66 -39 -113 -39 -113v-1c-2 -3 -6 -6 -10 -6c-1 0 -3 1 -4 1l-2 1l-50 20l-2 1c-3 2 -5 5 -5 9c0 1 0 3 1 4v1c7 16 27 59 37 101s13 63 13 108c0 71 -52 122 -116 122s-116 -51 -116 -122
c0 -45 3 -66 13 -108s30 -85 37 -101v-1c1 -1 1 -3 1 -4c0 -4 -2 -7 -5 -9l-2 -1l-50 -20l-2 -1c-1 0 -3 -1 -4 -1c-4 0 -8 3 -10 6v1s-24 47 -40 113c-12 51 -14 79 -14 128c0 122 77 200 192 200zM109 4c-9 19 -27 59 -36 98l-42 -12c13 -53 30 -92 35 -104l43 17v1z
M317 -14c5 12 23 51 36 104l-43 12c-9 -39 -26 -79 -35 -98v-1z" />
    <glyph glyph-name="ion-male" unicode="&#xf2a1;" 
d="M448 256l-63 63l-69 -69c22 -30 36 -66 36 -106c0 -97 -79 -176 -176 -176s-176 79 -176 176s79 176 176 176c40 0 76 -14 106 -36l69 69l-63 63h160v-160zM266 54c24 24 38 56 38 90s-14 66 -38 90s-56 38 -90 38s-66 -14 -90 -38s-38 -56 -38 -90s14 -66 38 -90
s56 -38 90 -38s66 14 90 38z" />
    <glyph glyph-name="ion-man" unicode="&#xf202;" horiz-adv-x="168" 
d="M84 341c-21 0 -37 17 -37 38s16 37 37 37s37 -16 37 -37s-16 -38 -37 -38zM121 333c28 0 47 -24 47 -48v-114c0 -22 -32 -22 -32 0v105h-5v-286c0 -28 -41 -31 -43 0v165h-1h-7v-165c-1 -29 -43 -30 -43 0v286h-6v-105c0 -22 -31 -22 -31 0v114c0 24 19 48 47 48h37h37z
" />
    <glyph glyph-name="ion-map" unicode="&#xf203;" 
d="M441 311c4 -3 7 -8 7 -14v-281c0 -6 -2 -11 -7 -14c-2 -1 -5 -2 -7 -2c-3 0 -6 0 -8 2l-97 66l-97 -66c-5 -3 -10 -3 -15 0l-97 66l-97 -66c-5 -3 -10 -3 -15 0s-8 8 -8 14v281c0 6 3 11 7 14l105 71c5 3 10 3 15 0l97 -66l98 66c5 3 10 3 15 0zM103 95v242l-71 -50v-242
zM135 95l73 -49v129l-4 -11c-7 2 -13 6 -20 10l8 13c5 -3 11 -6 16 -8v109l-73 49v-101c4 -2 9 -4 13 -7l-10 -13c-1 1 -2 1 -3 2v-123zM240 46l73 49v109c0 -1 -1 -1 -1 -2l-6 -6l-12 11l6 6c3 3 5 7 8 10l5 -5v119l-73 -49v-112h7l3 -15c-3 0 -6 -1 -9 -1h-1v-114zM416 46
v242l-71 49v-88c3 1 5 1 8 2l4 -16c-4 -1 -8 -1 -12 -3v-137zM97 227c-3 -1 -11 -5 -14 -7l-11 12c4 3 8 6 12 8c3 2 6 3 9 4l5 -15c-2 -1 1 -1 -1 -2zM265 182c5 3 10 5 15 10l11 -12c-6 -6 -12 -10 -19 -13zM67 192v-1l-15 5v1c2 7 4 13 9 20l13 -9c-4 -5 -5 -10 -7 -16z
M166 210c3 -4 7 -8 11 -11l-11 -12c-4 4 -8 9 -12 13l-3 3l12 11c1 -1 2 -3 3 -4zM376 218l-11 12l10 10l-10 10l11 12l10 -11l11 11l11 -12l-10 -10l10 -10l-11 -12l-11 11z" />
    <glyph glyph-name="ion-medkit" unicode="&#xf2a2;" 
d="M440 304c4 0 8 -4 8 -8v-288c0 -4 -4 -8 -8 -8h-432c-4 0 -8 4 -8 8v288c0 4 4 8 8 8h120v31c1 28 22 49 51 49h45h45c30 0 50 -21 51 -49v-31h120zM160 331v-27h128v27v1v1c0 10 -9 19 -19 19h-45h-45c-10 0 -19 -9 -19 -19v-1v-1zM320 128v64h-64v64h-64v-64h-64v-64
h64v-64h64v64h64z" />
    <glyph glyph-name="ion-merge" unicode="&#xf33f;" horiz-adv-x="384" 
d="M320 224c35 0 64 -29 64 -64s-29 -64 -64 -64c-24 0 -44 13 -55 32h-10c-61 0 -115 25 -159 74v-115c19 -11 32 -31 32 -55c0 -35 -29 -64 -64 -64s-64 29 -64 64c0 24 13 44 32 55v210c-19 11 -32 31 -32 55c0 35 29 64 64 64s64 -29 64 -64c0 -19 -8 -37 -22 -49
c4 -9 17 -35 37 -58c32 -35 70 -53 112 -53h10c11 19 31 32 55 32zM64 384c-18 0 -32 -14 -32 -32s14 -32 32 -32s32 14 32 32s-14 32 -32 32zM64 0c18 0 32 14 32 32s-14 32 -32 32s-32 -14 -32 -32s14 -32 32 -32zM320 128c18 0 32 14 32 32s-14 32 -32 32
s-32 -14 -32 -32s14 -32 32 -32z" />
    <glyph glyph-name="ion-mic-a" unicode="&#xf204;" horiz-adv-x="288" 
d="M0 210c0 10 9 19 20 19s19 -9 19 -19v-14c0 -28 12 -53 31 -72s45 -31 74 -31s55 12 74 31s31 44 31 72v14c0 10 8 19 19 19s20 -9 20 -19v-14c0 -66 -46 -120 -108 -136c-1 0 -3 -1 -4 -1c-6 -2 -10 -7 -12 -13v-58c0 -11 -9 -20 -20 -20v0c-11 0 -20 9 -20 20v58
c-2 6 -6 11 -12 13c-1 0 -3 1 -4 1c-62 16 -108 70 -108 136v14zM67 340c0 42 34 76 77 76s78 -34 78 -76v-144c0 -42 -35 -75 -78 -75s-77 33 -77 75v144z" />
    <glyph glyph-name="ion-mic-b" unicode="&#xf205;" horiz-adv-x="160" 
d="M80 416c35 0 65 -23 76 -59c6 -18 4 -45 2 -55s-8 -20 -14 -28c-3 -4 -7 -7 -11 -9c-1 0 -1 -1 -2 -1c-3 -1 -6 -2 -10 -3c-12 -3 -25 -5 -39 -5v0h-1h-1v0c-14 0 -29 2 -41 5c-4 1 -7 2 -10 3c-1 0 -1 1 -2 1c-4 2 -8 5 -11 9c-6 8 -12 18 -14 28s-4 37 2 55
c11 36 41 59 76 59zM119 247c6 0 12 -5 12 -12v-2c-5 -67 -18 -241 -19 -252c0 0 -3 -13 -32 -13v0c-29 0 -32 13 -32 13c-1 11 -13 185 -18 252v2c0 7 5 12 11 12h1c1 0 1 -1 2 -1c2 0 4 -1 6 -1c9 -2 21 -2 31 -2s20 0 29 2c2 0 4 1 6 1c1 0 1 1 2 1h1zM90 166v33
c0 6 -4 11 -10 11s-10 -5 -10 -11v-33c0 -6 4 -11 10 -11s10 5 10 11z" />
    <glyph glyph-name="ion-mic-c" unicode="&#xf206;" horiz-adv-x="256" 
d="M201 416c30 0 55 -23 55 -52v-28h-59v-37h59v-43h-59v-37h59v-43h-59v-37h59v-42c0 -29 -25 -52 -55 -52h-30v-77h-86v77h-30c-30 0 -55 23 -55 52v42h152v37h-152v43h152v37h-152v43h152v37h-152v28c0 29 25 52 55 52h146z" />
    <glyph glyph-name="ion-minus-circled" unicode="&#xf207;" 
d="M224 416c124 0 224 -100 224 -224s-100 -224 -224 -224s-224 100 -224 224s100 224 224 224zM352 176v32h-256v-32h256z" />
    <glyph glyph-name="ion-minus-round" unicode="&#xf208;" horiz-adv-x="384" 
d="M353 224c17 0 31 -14 31 -32s-14 -32 -31 -32h-322c-17 0 -31 14 -31 32s14 32 31 32h322z" />
    <glyph glyph-name="ion-minus" unicode="&#xf209;" horiz-adv-x="384" 
d="M0 160v64h384v-64h-384z" />
    <glyph glyph-name="ion-monitor" unicode="&#xf20a;" 
d="M437 384c6 0 11 -5 11 -11v-266c0 -6 -5 -11 -11 -11h-426c-6 0 -11 5 -11 11v266c0 6 5 11 11 11h426zM416 128v224h-384v-224h384zM270 0h-92c-28 0 -42 3 -30 12s30 16 30 23c0 4 1 45 1 45h45h45s1 -41 1 -45c0 -7 18 -14 30 -23s-2 -12 -30 -12z" />
    <glyph glyph-name="ion-more" unicode="&#xf20b;" horiz-adv-x="384" 
d="M50 144c-28 0 -50 21 -50 48c0 26 22 48 50 48s50 -22 50 -48c0 -27 -22 -48 -50 -48zM192 144c-28 0 -50 21 -50 48c0 26 22 48 50 48s50 -22 50 -48c0 -27 -22 -48 -50 -48zM334 144c-28 0 -50 21 -50 48c0 26 22 48 50 48s50 -22 50 -48c0 -27 -22 -48 -50 -48z" />
    <glyph glyph-name="ion-mouse" unicode="&#xf340;" horiz-adv-x="256" 
d="M128 416h-1h5h-4zM251 255c2 1 2 1 4 1h1v-176c0 -37 -21 -71 -53 -91c-5 -3 -9 -5 -14 -7v-1v0c-18 -9 -39 -13 -61 -13c-71 0 -128 50 -128 112v176h1c2 0 3 0 5 -1v0c34 -13 76 -23 122 -23s88 10 122 23h1zM189 -18c5 2 10 4 14 7c-5 -3 -9 -5 -14 -7v0v-1v1v0z
M203 -11c-4 -3 -9 -5 -14 -7c5 2 9 4 14 7zM132 416c69 -2 124 -51 124 -112v-23c-2 -2 -4 -4 -6 -5c-1 -1 -3 0 -4 -1c-23 -10 -50 -16 -82 -19h-1h-2c-11 0 -17 0 -17 10v86c0 9 -7 16 -16 16s-16 -7 -16 -16v-85c0 -11 -6 -11 -17 -11h-2c-32 3 -61 9 -84 19v0
c-1 0 -1 1 -2 1c-3 1 -5 3 -7 5v23c0 61 57 111 127 112h5z" />
    <glyph glyph-name="ion-music-note" unicode="&#xf20c;" horiz-adv-x="384" 
d="M362 416c12 0 22 -9 22 -21v-303s-3 -43 -12 -55v0c-9 -15 -25 -21 -43 -21h-37c-28 0 -52 20 -52 48s24 48 52 48h60v192l-208 -38v-232c0 -8 -3 -27 -13 -41c-1 -2 -2 -3 -3 -5c0 -1 -1 -1 -2 -2v0c-9 -11 -23 -18 -38 -18h-37c-28 0 -51 20 -51 48s23 48 51 48v0h61
v286c1 14 13 28 27 32l218 33s3 1 5 1z" />
    <glyph glyph-name="ion-navicon-round" unicode="&#xf20d;" horiz-adv-x="384" 
d="M353 224c17 0 31 -14 31 -32s-14 -32 -31 -32h-322c-17 0 -31 14 -31 32s14 32 31 32h322zM353 352c17 0 31 -14 31 -32s-14 -32 -31 -32h-322c-17 0 -31 14 -31 32s14 32 31 32h322zM353 96c17 0 31 -14 31 -32s-14 -32 -31 -32h-322c-17 0 -31 14 -31 32s14 32 31 32
h322z" />
    <glyph glyph-name="ion-navicon" unicode="&#xf20e;" horiz-adv-x="320" 
d="M0 175v32h320v-32h-320zM0 271v32h320v-32h-320zM0 79v32h320v-32h-320z" />
    <glyph glyph-name="ion-navigate" unicode="&#xf2a3;" 
d="M448 416l-192 -448v256h-256z" />
    <glyph glyph-name="ion-network" unicode="&#xf341;" horiz-adv-x="384" 
d="M384 352c0 -24 -13 -44 -32 -55v-93l-128 -64v-53c19 -11 32 -31 32 -55c0 -35 -29 -64 -64 -64s-64 29 -64 64c0 24 13 44 32 55v53l-128 64v93c-19 11 -32 31 -32 55c0 35 29 64 64 64s64 -29 64 -64c0 -24 -13 -44 -32 -55v-53l96 -48l96 48v53c-19 11 -32 31 -32 55
c0 35 29 64 64 64s64 -29 64 -64zM64 384c-18 0 -32 -14 -32 -32s14 -32 32 -32s32 14 32 32s-14 32 -32 32zM192 0c18 0 32 14 32 32s-14 32 -32 32s-32 -14 -32 -32s14 -32 32 -32zM320 320c18 0 32 14 32 32s-14 32 -32 32s-32 -14 -32 -32s14 -32 32 -32z" />
    <glyph glyph-name="ion-nuclear" unicode="&#xf2a4;" 
d="M176 176c0 27 21 48 48 48s48 -21 48 -48s-21 -48 -48 -48s-48 21 -48 48zM176 176c0 27 21 48 48 48s48 -21 48 -48s-21 -48 -48 -48s-48 21 -48 48zM448 176c0 -83 -46 -153 -114 -192l-79 136c20 11 33 32 33 56h160zM224 240c-12 0 -23 -3 -33 -9l-80 138
c33 19 72 31 113 31s80 -11 113 -30l-81 -139c-9 6 -20 9 -32 9zM160 176c0 -24 13 -45 33 -56l-79 -136c-68 39 -114 109 -114 192h160z" />
    <glyph glyph-name="ion-outlet" unicode="&#xf342;" 
d="M338 416c61 0 110 -51 110 -113v-222c0 -62 -49 -113 -110 -113h-228c-61 0 -110 51 -110 113v222c0 62 49 113 110 113h228zM143 197v102c0 11 -9 21 -20 21h-23c-11 0 -19 -9 -20 -20v-2v-101v-1c0 -11 9 -20 20 -20h23c11 0 20 9 20 20v1zM265 52v29
c0 23 -18 42 -41 42s-41 -19 -41 -42v-29v0c0 -11 9 -20 20 -20h21h21c11 0 20 7 20 18v2zM368 197v102c0 11 -9 21 -20 21h-24c-11 0 -19 -9 -20 -20v-2v-101v-1c0 -11 9 -20 20 -20h24c11 0 20 9 20 20v1z" />
    <glyph glyph-name="ion-paintbrush" unicode="&#xf4d5;" 
d="M118 165c52 0 102 -41 90 -102c-11 -52 -54 -71 -90 -77c-30 -5 -100 0 -118 35c24 9 34 26 34 49c0 49 32 95 84 95zM436 388c13 -13 17 -30 5 -45l-154 -175c2 -9 1 -17 -3 -23l-50 -58v0v0c-2 -2 -4 -2 -6 0c-1 1 -1 2 -1 3v1c2 53 -41 87 -89 90v0h-2s-2 0 -2 1
c-2 2 -2 4 0 6l59 49c6 4 14 4 23 2l175 154c15 12 32 8 45 -5zM134 188v0v0v0z" />
    <glyph glyph-name="ion-paintbucket" unicode="&#xf4d6;" horiz-adv-x="480" 
d="M112 384l32 32l275 -276l-58 -12l-163 -160l-198 192l152 152zM309 160l-110 110l-110 -110h220zM419 140c0 0 61 -66 61 -99s-27 -60 -61 -60s-60 27 -60 60s60 99 60 99z" />
    <glyph glyph-name="ion-paper-airplane" unicode="&#xf2c3;" 
d="M0 176l448 240l-112 -448l-112 112l-80 -112l-16 160zM319 31l80 323l-322 -173l83 -31l192 154l-128 -176z" />
    <glyph glyph-name="ion-paperclip" unicode="&#xf20f;" horiz-adv-x="160" 
d="M149 293c6 0 11 -5 11 -12v-195c0 -28 -10 -49 -24 -63c-15 -15 -36 -23 -56 -23c-40 0 -80 31 -80 88v234c0 24 11 44 29 54s39 11 57 0s29 -30 29 -54l-1 -225c0 -13 -3 -24 -9 -32s-16 -12 -25 -12c-17 0 -34 15 -34 44v173c0 6 6 12 12 12s11 -6 11 -12v-173
c0 -14 5 -21 11 -21c2 0 5 2 7 4c3 4 5 10 5 17v225c0 15 -6 28 -17 34s-24 6 -35 0s-17 -19 -17 -34v-234c0 -44 29 -64 57 -64s57 19 57 63v195c0 6 6 11 12 11z" />
    <glyph glyph-name="ion-pause" unicode="&#xf210;" horiz-adv-x="256" 
d="M96 12c0 -7 -5 -12 -12 -12h-72c-7 0 -12 5 -12 12v360c0 7 5 12 12 12h72c7 0 12 -5 12 -12v-360zM244 384c7 0 12 -5 12 -12v-360c0 -7 -5 -12 -12 -12h-72c-7 0 -12 5 -12 12v360c0 7 5 12 12 12h72z" />
    <glyph glyph-name="ion-person-add" unicode="&#xf211;" 
d="M397 120h-42v51h-51v42h51v51h42v-51h51v-42h-51v-51zM384 0h-192h-192s0 26 2 40c2 11 17 25 81 49c63 23 60 12 60 55c0 28 -14 11 -23 64c-4 21 -6 7 -14 40c-4 17 3 19 2 27s-2 16 -4 33c-2 21 18 76 88 76s90 -55 88 -76c-2 -17 -3 -25 -4 -33s6 -10 2 -27
c-8 -33 -10 -19 -14 -40c-9 -53 -23 -36 -23 -64c0 -43 -3 -32 60 -55c64 -24 79 -38 81 -49c2 -14 2 -40 2 -40z" />
    <glyph glyph-name="ion-person-stalker" unicode="&#xf212;" 
d="M393 123c42 -16 52 -26 53 -33c2 -9 2 -90 2 -90h-98c0 18 0 71 -1 77c-1 10 -1 29 -55 50c-8 3 -14 5 -19 7c18 8 15 15 15 28c0 19 -9 11 -15 47c-2 14 -4 5 -9 28c-3 12 1 12 1 18s-1 10 -2 22c-1 14 11 52 57 52s59 -38 58 -52c-1 -12 -2 -16 -2 -22
c-1 -6 4 -6 1 -18c-5 -23 -7 -14 -9 -28c-6 -36 -16 -28 -16 -47c0 -29 -2 -23 39 -39zM325 0h-163h-162s0 65 2 77c2 10 15 22 69 43c54 20 50 17 50 55c0 24 -12 8 -20 54c-3 18 -5 7 -11 36c-3 15 2 16 1 23s-2 14 -3 29c-2 19 15 67 74 67s77 -49 75 -67
c-1 -15 -2 -22 -3 -29s5 -8 2 -23c-6 -29 -9 -18 -12 -36c-8 -46 -20 -30 -20 -54c0 -32 -2 -36 31 -48c6 -2 11 -4 19 -7c54 -21 67 -33 69 -43c1 -6 2 -28 2 -47v-30z" />
    <glyph glyph-name="ion-person" unicode="&#xf213;" horiz-adv-x="384" 
d="M384 0h-192h-192s0 26 2 40c2 11 17 25 81 49c63 23 60 12 60 55c0 28 -14 11 -23 64c-4 21 -6 7 -14 40c-4 17 3 19 2 27s-2 16 -4 33c-2 21 18 76 88 76s90 -55 88 -76c-2 -17 -3 -25 -4 -33s6 -10 2 -27c-8 -33 -10 -19 -14 -40c-9 -53 -23 -36 -23 -64
c0 -43 -3 -32 60 -55c64 -24 79 -38 81 -49c2 -14 2 -40 2 -40z" />
    <glyph glyph-name="ion-pie-graph" unicode="&#xf2a5;" 
d="M1 192c0 5 -1 11 -1 16c0 115 93 208 208 208c5 0 11 -1 16 -1v-32v-191h-191h-32zM78 46c-26 32 -42 71 -45 114h223v223c43 -3 82 -19 114 -45c47 -38 78 -96 78 -162c0 -115 -93 -208 -208 -208c-66 0 -124 31 -162 78z" />
    <glyph glyph-name="ion-pin" unicode="&#xf2a6;" horiz-adv-x="224" 
d="M188 220c20 -10 36 -31 36 -55c0 -17 -3 -21 -15 -21h-81l-12 -176h-8l-12 176h-81c-12 0 -15 5 -15 21c0 24 16 45 36 55v0c1 0 3 1 4 2c7 4 12 11 14 19l18 118v5c0 7 -4 10 -10 13v0c-1 0 -1 1 -2 1c-7 3 -12 9 -12 17c0 20 6 21 18 21h92c12 0 18 -1 18 -21
c0 -8 -5 -14 -12 -17c-1 0 -1 -1 -2 -1v0c-6 -3 -10 -6 -10 -13v-5l18 -118c2 -8 7 -15 14 -19c1 -1 3 -2 4 -2v0z" />
    <glyph glyph-name="ion-pinpoint" unicode="&#xf2a7;" 
d="M224 416c124 0 224 -100 224 -224s-100 -224 -224 -224s-224 100 -224 224s100 224 224 224zM360 56c32 32 51 75 55 120l-63 8v16l63 8c-4 45 -23 88 -55 120s-75 51 -120 55l-8 -63h-16l-8 63c-45 -4 -88 -23 -120 -55s-51 -75 -55 -120l63 -8v-16l-63 -8
c4 -45 23 -88 55 -120s75 -51 120 -55l8 63h16l8 -63c45 4 88 23 120 55z" />
    <glyph glyph-name="ion-pizza" unicode="&#xf2a8;" horiz-adv-x="352" 
d="M315 318c10 -4 12 -13 9 -20l-148 -330s-143 320 -148 331s2 16 9 19c39 18 90 28 139 28s96 -9 139 -28zM112 256c18 0 32 14 32 32s-14 32 -32 32s-32 -14 -32 -32s14 -32 32 -32zM176 109c18 0 32 14 32 32s-14 32 -32 32s-32 -14 -32 -32s14 -32 32 -32zM240 224
c18 0 32 14 32 32s-14 32 -32 32s-32 -14 -32 -32s14 -32 32 -32zM342 382c6 -3 10 -6 10 -13c0 -1 0 -3 -1 -5l-8 -19c-3 -5 -8 -9 -14 -9c-1 0 -3 1 -6 2c-41 18 -95 30 -147 30s-102 -11 -147 -30c-3 -1 -4 -2 -6 -2c-6 0 -11 4 -14 9l-8 19s-1 2 -1 5c0 8 6 12 10 14
c49 21 107 33 166 33s118 -13 166 -34z" />
    <glyph glyph-name="ion-play" unicode="&#xf215;" horiz-adv-x="320" 
d="M309 215c7 -6 11 -14 11 -23s-4 -17 -11 -23l-278 -166c-4 -2 -7 -3 -11 -3c-11 0 -20 9 -20 20v0v344v0c0 11 9 20 20 20c4 0 8 -1 11 -3z" />
    <glyph glyph-name="ion-plus-circled" unicode="&#xf216;" 
d="M224 416c124 0 224 -100 224 -224s-100 -224 -224 -224s-224 100 -224 224s100 224 224 224zM352 176v32h-112v112h-32v-112h-112v-32h112v-112h32v112h112z" />
    <glyph glyph-name="ion-plus-round" unicode="&#xf217;" horiz-adv-x="384" 
d="M353 224c17 0 31 -14 31 -32s-14 -32 -31 -32h-129v-129c0 -17 -14 -31 -32 -31s-32 14 -32 31v129h-129c-17 0 -31 14 -31 32s14 32 31 32h129v129c0 17 14 31 32 31s32 -14 32 -31v-129h129z" />
    <glyph glyph-name="ion-plus" unicode="&#xf218;" horiz-adv-x="384" 
d="M384 224v-64h-160v-160h-64v160h-160v64h160v160h64v-160h160z" />
    <glyph glyph-name="ion-podium" unicode="&#xf344;" 
d="M0 0v192h128v-192h-128zM160 0v288h128v-288h-128zM320 0v128h128v-128h-128z" />
    <glyph glyph-name="ion-pound" unicode="&#xf219;" 
d="M93 96h-93v54h101l13 84h-99v54h107l22 128h64l-22 -128h106l22 128h63l-22 -128h93v-54h-102l-12 -84h99v-54h-107l-22 -128h-63l22 128h-107l-22 -128h-63zM177 234l-12 -84h106l12 84h-106v0z" />
    <glyph glyph-name="ion-power" unicode="&#xf2a9;" 
d="M224 192c-18 0 -32 14 -32 32v160c0 18 14 32 32 32s32 -14 32 -32v-160c0 -18 -14 -32 -32 -32zM347 379c61 -40 101 -109 101 -187c0 -124 -100 -224 -224 -224s-224 100 -224 224c0 78 40 147 101 187v0c5 3 11 5 17 5c18 0 32 -14 32 -32c0 -6 -2 -12 -5 -17
c-2 -3 -4 -6 -7 -8c-1 -1 -3 -2 -4 -3c-8 -6 -16 -12 -23 -19c-30 -30 -47 -70 -47 -113s17 -83 47 -113s70 -47 113 -47s83 17 113 47s47 70 47 113s-17 83 -47 113c-7 7 -15 13 -23 19c-1 1 -3 2 -4 3c-3 2 -5 5 -7 8c-3 5 -5 11 -5 17c0 18 14 32 32 32c6 0 12 -2 17 -5
v0z" />
    <glyph glyph-name="ion-pricetag" unicode="&#xf2aa;" 
d="M439 187c12 -12 12 -31 0 -43l-165 -167c-11 -11 -30 -11 -42 -1l-3 3l-206 209l-6 5c-6 7 -9 15 -10 24v0v2v0l-7 98v4v0c0 12 4 24 13 33l49 49c8 9 20 13 31 13h4l100 -4v0c12 0 22 -4 30 -12v0l2 -2v0l210 -211v0v0zM112 256c26 0 48 22 48 48s-22 48 -48 48
s-48 -22 -48 -48s22 -48 48 -48z" />
    <glyph glyph-name="ion-pricetags" unicode="&#xf2ab;" 
d="M440 209c10 -11 11 -28 0 -39l-29 -29c11 11 10 28 0 39v0v0l-190 191v0l-1 1h-1c-8 7 -16 12 -27 12v0l-90 3h-4c-9 0 -19 -3 -26 -10l28 27c8 8 17 12 27 12h4l90 -4v0c11 0 19 -4 27 -11h1l1 -1v0l190 -191v0v0zM396 166v0c11 -11 11 -29 0 -40l-108 -109v1l-26 -27
l-2 -2l-13 -13c-10 -10 -26 -10 -37 -1l-3 3l-186 188l-5 5c-5 6 -9 14 -10 22v0v2v0l-6 88v3v1c0 11 4 21 12 29l44 45l1 1l1 1c7 6 17 9 26 9h4l90 -3v0c11 0 19 -4 27 -11v0l2 -1v0l189 -191v0zM79 308c-12 -8 -21 -21 -21 -37c0 -24 19 -43 43 -43c16 0 29 9 37 21
c4 7 7 14 7 22c0 24 -20 44 -44 44c-8 0 -15 -3 -22 -7z" />
    <glyph glyph-name="ion-printer" unicode="&#xf21a;" 
d="M392 320c28 0 56 -19 56 -55v-131c0 -31 -28 -54 -56 -54h-40v-112h-8h-8h-224h-11h-5v112h-40c-28 0 -56 24 -56 62v123c0 38 28 55 56 55h40v64h256v-64h40zM336 -16v176h-224v-176h224zM336 320v48h-224v-48h224zM384 256v16h-17v-16h17zM128 112v16h192v-16h-192z
M128 64v16h192v-16h-192zM128 16v16h192v-16h-192z" />
    <glyph glyph-name="ion-pull-request" unicode="&#xf345;" horiz-adv-x="384" 
d="M64 384c35 0 64 -29 64 -64c0 -24 -13 -44 -32 -55v-178c19 -11 32 -31 32 -55c0 -35 -29 -64 -64 -64s-64 29 -64 64c0 24 13 44 32 55v178c-19 11 -32 31 -32 55c0 35 29 64 64 64zM64 0c18 0 32 14 32 32s-14 32 -32 32s-32 -14 -32 -32s14 -32 32 -32zM64 288
c18 0 32 14 32 32s-14 32 -32 32s-32 -14 -32 -32s14 -32 32 -32zM351 88c20 -11 33 -32 33 -56c0 -35 -29 -64 -64 -64s-64 29 -64 64c0 23 12 44 31 55v156c0 16 -4 26 -11 33c-10 9 -26 12 -52 12v-64l-96 96l96 96v-64c42 1 74 -8 96 -29c21 -19 31 -46 31 -80v-155z
M320 0c18 0 32 14 32 32s-14 32 -32 32s-32 -14 -32 -32s14 -32 32 -32z" />
    <glyph glyph-name="ion-qr-scanner" unicode="&#xf346;" horiz-adv-x="416" 
d="M48 324v-68h-48v68c0 33 28 60 61 60h67v-48h-68c-7 0 -12 -5 -12 -12zM356 384c33 0 60 -27 60 -60v-68h-48v68c0 7 -6 12 -13 12h-67v48h68zM368 61v67h48v-67c0 -33 -27 -61 -60 -61h-68v49h68c7 0 12 5 12 12zM60 49h68v-49h-67c-33 0 -61 28 -61 61v67h48v-67
c0 -7 5 -12 12 -12z" />
    <glyph glyph-name="ion-quote" unicode="&#xf347;" horiz-adv-x="384" 
d="M128 384c-41 0 -73 -11 -95 -33s-33 -54 -33 -95v-256h160v256h-96c0 23 5 39 15 49s26 15 49 15zM352 384c-41 0 -73 -11 -95 -33s-33 -54 -33 -95v-256h160v256h-96c0 23 5 39 15 49s26 15 49 15z" />
    <glyph glyph-name="ion-radio-waves" unicode="&#xf2ac;" 
d="M160 192c0 35 29 64 64 64s64 -29 64 -64s-29 -64 -64 -64s-64 29 -64 64zM112 192c0 -37 18 -69 46 -87l-23 -25c-6 5 -12 10 -18 16c-24 26 -37 60 -37 96s13 70 37 96c6 6 12 11 18 16l23 -25c-28 -18 -46 -50 -46 -87zM336 192c0 37 -18 69 -46 87l23 25
c6 -5 12 -10 18 -16c24 -26 37 -60 37 -96s-13 -70 -37 -96c-6 -6 -12 -11 -18 -16l-23 25c28 18 46 50 46 87zM32 192c0 -56 25 -105 64 -136l-23 -24c-6 5 -12 10 -17 16c-18 19 -31 41 -41 65c-10 25 -15 52 -15 79s5 54 15 79c10 24 23 46 41 65c5 6 11 11 17 16l23 -24
c-39 -31 -64 -80 -64 -136zM416 192c0 56 -25 105 -64 136l23 24c6 -5 12 -10 17 -16c18 -19 31 -41 41 -65c10 -25 15 -52 15 -79s-5 -54 -15 -79c-10 -24 -23 -46 -41 -65c-5 -6 -11 -11 -17 -16l-23 24c39 31 64 80 64 136z" />
    <glyph glyph-name="ion-record" unicode="&#xf21b;" horiz-adv-x="416" 
d="M208 -16c-115 0 -208 93 -208 208s93 208 208 208s208 -93 208 -208s-93 -208 -208 -208z" />
    <glyph glyph-name="ion-refresh" unicode="&#xf21c;" 
d="M352 96l-104 112h74c-7 65 -64 112 -130 112c-71 0 -128 -57 -128 -128s57 -128 128 -128c28 0 53 8 75 24l6 5l43 -46l-7 -6c-34 -26 -74 -41 -117 -41c-91 0 -167 64 -187 149v0c0 1 -1 2 -1 3v1v2s-1 2 -1 3v1c0 1 -1 3 -1 4v0c-1 6 -2 13 -2 19v1v4v5v5v4v1
c0 6 1 13 2 19v0c0 1 1 3 1 4v1c0 1 1 1 1 2v3v1c0 1 1 2 1 3v0c20 85 96 149 187 149v0v0c11 0 21 -1 31 -3h2h2c57 -10 106 -47 133 -96c13 -23 21 -49 23 -77h65z" />
    <glyph glyph-name="ion-reply-all" unicode="&#xf21d;" horiz-adv-x="416" 
d="M257 256c153 0 159 -208 159 -208c-51 93 -91 102 -159 102v-92l-152 134l152 144v-80zM0 192l144 136v-57l-82 -79l82 -68v-58z" />
    <glyph glyph-name="ion-reply" unicode="&#xf21e;" horiz-adv-x="384" 
d="M384 48c-53 93 -122 102 -224 102v-92l-160 134l160 144v-80c187 0 224 -208 224 -208z" />
    <glyph glyph-name="ion-ribbon-a" unicode="&#xf348;" horiz-adv-x="352" 
d="M272 416l80 -96l-64 -134c-24 30 -59 49 -99 53zM80 416l83 -177c-40 -4 -75 -23 -99 -53l-64 134zM189 416h67l-53 -112h-27h-27l-53 112h80h13zM176 224c71 0 128 -57 128 -128s-57 -128 -128 -128s-128 57 -128 128s57 128 128 128zM176 0c53 0 96 43 96 96
s-43 96 -96 96s-96 -43 -96 -96s43 -96 96 -96zM176 184c49 0 88 -39 88 -88s-39 -88 -88 -88s-88 39 -88 88s39 88 88 88z" />
    <glyph glyph-name="ion-ribbon-b" unicode="&#xf349;" horiz-adv-x="384" 
d="M192 376c49 0 88 -39 88 -88s-39 -88 -88 -88s-88 39 -88 88s39 88 88 88zM192 416c71 0 128 -57 128 -128s-57 -128 -128 -128s-128 57 -128 128s57 128 128 128zM192 192c53 0 96 43 96 96s-43 96 -96 96s-96 -43 -96 -96s43 -96 96 -96zM83 194c26 -30 65 -50 109 -50
c12 0 23 1 34 4l-34 -74l-48 -106l-48 80h-96zM301 194l83 -146h-96l-48 -80l-40 88l45 98c22 9 41 23 56 40z" />
    <glyph glyph-name="ion-sad-outline" unicode="&#xf4d7;" 
d="M367 164c3 -9 -2 -17 -11 -19c-3 -1 -7 0 -10 1c-5 2 -9 5 -11 10s-4 12 -13 15s-14 0 -19 -3c-4 -3 -10 -3 -15 -1c-3 1 -7 3 -9 6c-6 8 -3 17 5 22c15 9 29 13 49 6s29 -21 34 -37zM165 195c8 -5 10 -14 4 -22c-2 -3 -6 -5 -9 -6c-5 -2 -11 -2 -15 1c-5 3 -10 6 -19 3
s-11 -10 -13 -15s-6 -8 -11 -10c-3 -1 -7 -2 -10 -1c-9 2 -14 10 -11 19c5 16 14 30 34 37s35 3 50 -6zM224 416c124 0 224 -100 224 -224s-100 -224 -224 -224s-224 100 -224 224s100 224 224 224zM360 56c36 36 56 85 56 136s-20 100 -56 136s-85 56 -136 56
s-100 -20 -136 -56s-56 -85 -56 -136s20 -100 56 -136s85 -56 136 -56s100 20 136 56zM317 89c5 -7 3 -17 -4 -22c-3 -2 -6 -3 -9 -3c-5 0 -10 3 -13 7c0 0 -19 25 -67 25s-67 -25 -67 -25c-3 -4 -8 -7 -13 -7c-3 0 -6 1 -9 3c-7 5 -9 15 -4 22c1 2 28 39 93 39
s92 -37 93 -39z" />
    <glyph glyph-name="ion-sad" unicode="&#xf34a;" 
d="M224 416c124 0 224 -100 224 -224s-100 -224 -224 -224s-224 100 -224 224s100 224 224 224zM113 156c2 5 4 12 13 15s14 0 19 -3c4 -3 10 -3 15 -1c3 1 7 3 9 6c6 8 4 17 -4 22c-15 9 -30 13 -50 6s-29 -21 -34 -37c-3 -9 2 -17 11 -19c3 -1 7 0 10 1c5 2 9 5 11 10z
M313 67c7 5 9 15 4 22c-1 2 -28 39 -93 39s-92 -37 -93 -39c-5 -7 -3 -17 4 -22c3 -2 6 -3 9 -3c5 0 10 3 13 7c0 0 19 25 67 25s67 -25 67 -25c3 -4 8 -7 13 -7c3 0 6 1 9 3zM356 145c9 2 14 10 11 19c-5 16 -14 30 -34 37s-34 3 -49 -6c-8 -5 -11 -14 -5 -22
c2 -3 6 -5 9 -6c5 -2 11 -2 15 1c5 3 10 6 19 3s11 -10 13 -15s6 -8 11 -10c3 -1 7 -2 10 -1z" />
    <glyph glyph-name="ion-scissors" unicode="&#xf34b;" horiz-adv-x="384" 
d="M341 332c-13 -33 -117 -172 -117 -172l-32 -32s-31 -13 -50 -43s-33 -71 -33 -71v0c-7 -26 -28 -46 -53 -46c-31 0 -56 29 -56 64s25 64 56 64c13 0 25 -5 34 -13c2 -1 3 -3 4 -4v0l2 -2c4 -4 7 -2 14 11c8 15 17 35 27 54s38 59 38 59l17 23l144 192
c23 -20 18 -51 5 -84zM56 0c15 0 28 14 28 32s-13 32 -28 32s-28 -14 -28 -32s13 -32 28 -32zM192 160c9 0 16 7 16 16s-7 16 -16 16s-16 -7 -16 -16s7 -16 16 -16zM143 183c-30 41 -90 125 -100 149c-13 33 -18 64 5 84l134 -178l-3 -4v0v0l-17 -23v-1v0
c-1 -1 -10 -13 -19 -27zM328 96c31 0 56 -29 56 -64s-25 -64 -56 -64c-25 0 -47 20 -54 46v0s-13 41 -32 71c-11 17 -26 28 -36 35l29 29l1 1h1c1 1 1 2 2 4c3 -4 5 -9 7 -12c10 -19 20 -39 28 -54c7 -13 10 -15 14 -11c1 1 0 1 1 2h1c1 1 2 3 4 4c9 8 21 13 34 13zM328 0
c15 0 28 14 28 32s-13 32 -28 32s-28 -14 -28 -32s13 -32 28 -32z" />
    <glyph glyph-name="ion-search" unicode="&#xf21f;" horiz-adv-x="384" 
d="M381 61c4 -4 4 -10 0 -14l-43 -44c-2 -2 -5 -3 -8 -3s-5 1 -7 3l-84 86c-25 -15 -52 -23 -80 -23c-87 0 -159 71 -159 159s72 159 159 159s158 -71 158 -159c0 -27 -7 -54 -21 -78zM159 322c-53 0 -97 -43 -97 -97s44 -97 97 -97s96 43 96 97s-43 97 -96 97z" />
    <glyph glyph-name="ion-settings" unicode="&#xf2ad;" horiz-adv-x="416" 
d="M402 310c10 -6 15 -25 14 -36c-1 -17 -7 -36 -25 -54c-1 -1 -2 -1 -3 -2c-26 -25 -62 -30 -94 -20c-1 1 -2 2 -4 2c-5 1 -10 0 -13 -4l-36 -39c52 -50 107 -96 107 -96c2 -2 2 -5 0 -7l-50 -51c-2 -2 -5 -2 -7 0c0 0 -44 55 -93 107l-92 -98c-14 -16 -40 -15 -55 0
c-15 16 -15 42 1 56l97 93l-12 12c-2 2 -3 7 -1 10l2 5c-25 26 -36 33 -56 32s-36 -13 -48 -28s-10 -52 -8 -62s-7 -6 -12 0c-9 10 -23 50 -6 93s42 69 48 75s16 15 24 21s21 -1 27 5c4 4 5 11 5 16l-4 4c-2 2 -2 5 0 7l31 31c2 2 5 2 7 0l50 -50c2 -2 2 -6 0 -8l-31 -31
c-2 -2 -5 -2 -7 0l-8 9c-7 0 -15 -5 -17 -10c-3 -6 -6 -21 -3 -33c3 -11 13 -20 36 -43l5 3c4 2 8 1 10 -1c0 0 1 -2 13 -14l38 37c4 3 5 7 4 13c0 2 0 4 -1 5c-10 33 -6 69 19 96l2 2c18 18 36 25 53 26c10 1 30 -5 35 -15l-48 -48l-2 -3l-1 -1c-1 -1 -1 -2 -1 -4
s0 -3 1 -5l2 -2l2 -2l41 -42l3 -3l1 -1c1 -1 2 -1 4 -1s3 0 4 1l2 1l2 3z" />
    <glyph glyph-name="ion-share" unicode="&#xf220;" horiz-adv-x="384" 
d="M288 70v59l38 31v-109c0 -11 -8 -19 -19 -19h-288c-11 0 -19 9 -19 19v218c0 11 8 19 19 19h120c-29 -18 -43 -38 -43 -38h-58v-180h250zM256 224c-84 0 -116 -24 -160 -96c0 0 5 164 160 164v60l128 -96l-128 -96v64z" />
    <glyph glyph-name="ion-shuffle" unicode="&#xf221;" 
d="M338 267c-52 0 -83 -43 -120 -92c-41 -55 -88 -120 -171 -120h-47v63h47c52 0 84 47 121 96c41 55 87 116 170 116h29v54l81 -81l-81 -84v48h-29zM121 230c-21 21 -42 35 -74 36c-34 1 -47 0 -47 0v63h47c48 0 83 -20 113 -48c-10 -12 -19 -24 -28 -36
c-4 -5 -7 -10 -11 -15zM367 118v47l81 -84l-81 -81v54h-29c-50 0 -87 23 -117 53c12 14 22 28 32 41c2 3 5 6 7 9c22 -24 46 -39 78 -39h29z" />
    <glyph glyph-name="ion-skip-backward" unicode="&#xf222;" horiz-adv-x="384" 
d="M12 352h8c7 0 12 -5 12 -12v-113l187 122c2 2 5 3 8 3c8 0 16 -7 16 -17v-63l118 78c2 2 5 2 8 2c8 0 15 -7 15 -17v-286c0 -10 -7 -17 -15 -17c-3 0 -5 1 -8 3l-118 78v-64c0 -10 -8 -17 -16 -17c-3 0 -5 1 -8 3l-187 122v-113c0 -7 -5 -12 -12 -12h-8
c-7 0 -12 5 -12 12v296c0 7 5 12 12 12z" />
    <glyph glyph-name="ion-skip-forward" unicode="&#xf223;" horiz-adv-x="384" 
d="M372 352c7 0 12 -5 12 -12v-296c0 -7 -5 -12 -12 -12h-8c-7 0 -12 5 -12 12v113l-187 -122c-3 -2 -5 -3 -8 -3c-8 0 -15 7 -15 17v64l-119 -78c-3 -2 -5 -3 -8 -3c-8 0 -15 7 -15 17v286c0 10 7 17 15 17c3 0 6 0 8 -2l119 -78v63c0 10 7 17 15 17c3 0 6 -1 8 -3
l187 -122v113c0 7 5 12 12 12h8z" />
    <glyph glyph-name="ion-social-apple-outline" unicode="&#xf226;" horiz-adv-x="320" 
d="M238 278c-15 0 -26 -4 -37 -8c-10 -4 -21 -8 -35 -8s-25 4 -37 8c-11 4 -22 8 -34 8c-11 0 -23 -3 -34 -10c-12 -7 -23 -18 -31 -31c-12 -18 -16 -47 -13 -77c3 -34 16 -69 35 -99c13 -21 30 -45 50 -45h1c8 0 13 3 20 6c10 5 23 10 44 10v0c21 0 34 -5 44 -10
c7 -3 12 -6 19 -6v0c22 0 44 35 52 48c8 12 12 20 17 31c-12 7 -22 16 -30 28c-10 15 -17 33 -18 52c-1 18 2 37 10 53c6 12 14 22 24 30c-14 13 -31 20 -47 20zM238 294v0c25 0 52 -14 71 -39c-63 -36 -53 -128 11 -153c-9 -20 -13 -28 -24 -46c-16 -25 -37 -56 -65 -56h-1
c-24 0 -31 16 -63 16v0c-33 0 -40 -16 -64 -16h-1c-28 0 -48 28 -64 53c-44 69 -48 150 -21 193c19 30 50 48 78 48c29 0 47 -16 71 -16c23 0 38 16 72 16zM214 364c-11 -5 -21 -13 -28 -22c-4 -5 -9 -13 -13 -23c-1 -3 -2 -6 -2 -9c11 4 21 11 28 21c4 5 12 18 15 33z
M230 384v0c3 -23 -6 -46 -18 -62c-13 -17 -35 -30 -56 -30h-1c-4 22 6 44 18 60c14 17 37 31 57 32z" />
    <glyph glyph-name="ion-social-apple" unicode="&#xf227;" horiz-adv-x="320" 
d="M238 294v0c25 0 52 -14 71 -39c-63 -36 -53 -128 11 -153c-9 -20 -13 -28 -24 -46c-16 -25 -37 -56 -65 -56h-1c-24 0 -31 16 -63 16v0c-33 0 -40 -16 -64 -16h-1c-28 0 -48 28 -64 53c-44 69 -48 150 -21 193c19 30 50 48 78 48c29 0 47 -16 71 -16c23 0 38 16 72 16z
M230 384v0c3 -23 -6 -46 -18 -62c-13 -17 -35 -30 -56 -30h-1c-4 22 6 44 18 60c14 17 37 31 57 32z" />
    <glyph glyph-name="ion-social-buffer-outline" unicode="&#xf228;" horiz-adv-x="384" 
d="M7 284c-9 4 -9 11 0 15l169 82c4 2 10 3 16 3s12 -1 16 -3l169 -82c9 -4 9 -11 0 -15l-169 -82c-4 -2 -10 -3 -16 -3s-12 1 -16 3zM183 366l-156 -75l156 -75c2 -1 5 -1 9 -1s7 0 9 1l156 75l-156 75c-2 1 -5 2 -9 2s-7 -1 -9 -2zM377 200c9 -4 9 -12 0 -16l-169 -81
c-4 -2 -10 -4 -16 -4s-12 2 -16 4l-169 81c-9 4 -9 12 0 16c0 0 27 13 33 16c5 3 7 3 13 0s123 -60 123 -60c4 -2 10 -3 16 -3s12 1 16 3c0 0 121 59 125 61s5 2 9 0s35 -17 35 -17zM201 117l156 75l-19 9l-123 -59c-6 -3 -15 -5 -23 -5s-17 2 -23 5l-123 59l-19 -9l156 -75
c2 -1 5 -2 9 -2s7 1 9 2zM377 100c9 -4 9 -11 0 -15l-169 -82c-4 -2 -10 -3 -16 -3s-12 1 -16 3l-169 82c-9 4 -9 11 0 15c0 0 27 14 33 17c5 3 7 2 13 -1s123 -59 123 -59c4 -2 10 -3 16 -3s12 1 16 3c0 0 121 58 125 60s5 2 9 0s35 -17 35 -17zM201 18l156 75l-19 9
l-123 -60c-6 -3 -15 -4 -23 -4s-17 1 -23 4l-123 60l-19 -9l156 -75c2 -1 5 -2 9 -2s7 1 9 2z" />
    <glyph glyph-name="ion-social-buffer" unicode="&#xf229;" horiz-adv-x="384" 
d="M7 284c-9 4 -9 11 0 15l169 82c4 2 10 3 16 3s12 -1 16 -3l169 -82c9 -4 9 -11 0 -15l-169 -82c-4 -2 -10 -3 -16 -3s-12 1 -16 3zM377 200c9 -4 9 -12 0 -16l-169 -81c-4 -2 -10 -4 -16 -4s-12 2 -16 4l-169 81c-9 4 -9 12 0 16c0 0 27 13 33 16c5 3 7 3 13 0
s123 -60 123 -60c4 -2 10 -3 16 -3s12 1 16 3c0 0 121 59 125 61s5 2 9 0s35 -17 35 -17zM377 100c9 -4 9 -11 0 -15l-169 -82c-4 -2 -10 -3 -16 -3s-12 1 -16 3l-169 82c-9 4 -9 11 0 15c0 0 27 14 33 17c5 3 7 2 13 -1s123 -59 123 -59c4 -2 10 -3 16 -3s12 1 16 3
c0 0 121 58 125 60s5 2 9 0s35 -17 35 -17z" />
    <glyph glyph-name="ion-social-chrome-outline" unicode="&#xf4da;" 
d="M224 416c123 0 224 -101 224 -224s-101 -224 -224 -224s-224 101 -224 224s101 224 224 224zM224 371c-57 0 -109 -27 -141 -68l54 -93c8 40 43 72 87 72h155c-30 54 -89 89 -155 89zM291 192c0 37 -30 67 -67 67s-67 -30 -67 -67s30 -67 67 -67s67 30 67 67zM45 192
c0 -91 67 -166 154 -177l54 93c-9 -3 -19 -6 -29 -6c-34 0 -61 18 -77 45v0l-78 135c-16 -27 -24 -58 -24 -90zM224 13c99 0 179 80 179 179c0 24 -4 46 -13 67h-108c19 -17 32 -40 32 -67c0 -17 -5 -32 -13 -45v0z" />
    <glyph glyph-name="ion-social-chrome" unicode="&#xf4db;" 
d="M157 192c0 37 30 67 67 67s67 -30 67 -67s-30 -67 -67 -67s-67 30 -67 67zM445 230c2 -12 3 -25 3 -38c0 -106 -74 -195 -174 -218c-10 -2 -20 -4 -30 -5c-7 -1 -13 -1 -20 -1c-8 0 -17 0 -25 1v0v0v0v1l102 177c8 13 13 28 13 45c0 27 -13 50 -32 67h156
c3 -9 5 -19 7 -29v0c-2 10 -4 20 -7 29v0c3 -9 5 -19 7 -29v0zM224 103c10 0 20 2 29 5l-78 -135v0c-42 9 -79 30 -108 59c-42 41 -67 97 -67 160c0 31 6 61 18 88c7 16 16 31 26 45v0l103 -178c16 -27 43 -44 77 -44zM59 343v0v1c24 26 55 47 90 59c23 8 49 13 75 13
c73 0 138 -36 179 -90h1c10 -14 18 -29 25 -44v0c-7 15 -15 30 -25 44h-1c10 -14 19 -29 26 -44h-205c-44 0 -79 -32 -87 -72z" />
    <glyph glyph-name="ion-social-codepen-outline" unicode="&#xf4dc;" 
d="M356 244c5 -3 7 -6 7 -12v-81c0 -6 -3 -10 -8 -13c-41 -27 -82 -55 -123 -82c-6 -4 -11 -4 -17 0c-41 27 -81 55 -122 82c-5 3 -8 7 -8 13v80c0 6 3 11 8 14c41 27 81 54 122 81c6 4 11 4 17 0c41 -27 83 -55 124 -82zM236 296v-54c0 -1 1 -2 2 -3c16 -11 31 -21 47 -32
c1 -1 3 -1 4 0l40 26zM212 295c0 0 -62 -41 -93 -62c14 -9 27 -17 40 -26c1 -1 3 -1 4 0c15 10 31 21 46 31c1 1 3 4 3 6v51zM109 211v-40l30 20zM212 87v53c0 1 -2 3 -3 4c-15 10 -31 21 -46 31c-2 1 -3 1 -5 0l-39 -26c31 -21 93 -62 93 -62zM227 165l39 26s-34 23 -40 27
c-1 1 -4 0 -5 -1c-5 -3 -9 -6 -14 -9c-8 -6 -25 -17 -25 -17l39 -26c2 -1 4 -1 6 0zM236 87l93 62l-38 26c-2 2 -5 2 -7 0c-15 -10 -30 -21 -45 -31c-2 -2 -3 -3 -3 -6v-51zM338 171v40l-30 -20zM224 384c-51 0 -100 -20 -136 -56s-56 -85 -56 -136s20 -100 56 -136
s85 -56 136 -56s100 20 136 56s56 85 56 136s-20 100 -56 136s-85 56 -136 56zM224 416v0c124 0 224 -100 224 -224s-100 -224 -224 -224s-224 100 -224 224s100 224 224 224z" />
    <glyph glyph-name="ion-social-codepen" unicode="&#xf4dd;" 
d="M209 144c1 -1 3 -3 3 -4v-53s-62 41 -93 62l39 26c2 1 3 1 5 0c15 -10 31 -21 46 -31zM163 207c-1 -1 -3 -1 -4 0c-13 9 -26 17 -40 26c31 21 93 62 93 62v-51c0 -2 -2 -5 -3 -6c-15 -10 -31 -21 -46 -31zM238 239c-1 1 -2 2 -2 3v54l93 -63l-40 -26c-1 -1 -3 -1 -4 0
c-16 11 -31 21 -47 32zM226 218c6 -4 40 -27 40 -27l-39 -26c-2 -1 -4 -1 -6 0l-39 26s17 11 25 17c5 3 9 6 14 9c1 1 4 2 5 1zM109 211l30 -20l-30 -20v40zM224 416c124 0 224 -100 224 -224s-100 -224 -224 -224s-224 100 -224 224s100 224 224 224zM363 151v81
c0 6 -2 9 -7 12c-41 27 -83 55 -124 82c-6 4 -11 4 -17 0c-41 -27 -81 -54 -122 -81c-5 -3 -8 -8 -8 -14v-80c0 -6 3 -10 8 -13c41 -27 81 -55 122 -82c6 -4 11 -4 17 0c41 27 82 55 123 82c5 3 8 7 8 13zM284 175c2 2 5 2 7 0l38 -26l-93 -62v51c0 3 1 4 3 6
c15 10 30 21 45 31zM338 171l-30 20l30 20v-40z" />
    <glyph glyph-name="ion-social-css3-outline" unicode="&#xf4de;" horiz-adv-x="384" 
d="M291 81l-99 -28l-98 28l-7 78h48l4 -40l53 -15v0v0l54 15l5 64h-112l-4 50h121l4 51h-184l-4 49h241zM0 416h384l-35 -403l-157 -45l-157 45zM319 37l30 347h-314l30 -347l127 -36z" />
    <glyph glyph-name="ion-social-css3" unicode="&#xf4df;" horiz-adv-x="384" 
d="M192 109v0zM0 416h384l-35 -403l-157 -45l-157 45zM291 81l22 252h-241l4 -49h184l-4 -51h-121l4 -50h112l-5 -64l-54 -15v0v0l-53 15l-4 40h-48l7 -78l98 -28z" />
    <glyph glyph-name="ion-social-facebook-outline" unicode="&#xf230;" horiz-adv-x="192" 
d="M128 256h64l-8 -64h-56v-192h-83v192h-45v64h45v43c0 54 23 85 91 85h56v-64h-34c-27 0 -30 -9 -30 -26v-38zM170 208l4 32h-45h-17v17v37c0 10 1 21 9 30c10 11 25 12 37 12h18v32h-40c-28 0 -49 -6 -60 -18c-10 -11 -15 -27 -15 -51v-43v-16h-15h-30v-32h30h15v-16
v-176h51v176v16h17h41z" />
    <glyph glyph-name="ion-social-facebook" unicode="&#xf231;" horiz-adv-x="192" 
d="M128 256h64l-8 -64h-56v-192h-83v192h-45v64h45v43c0 54 23 85 91 85h56v-64h-34c-27 0 -30 -9 -30 -26v-38z" />
    <glyph glyph-name="ion-social-github-outline" unicode="&#xf232;" 
d="M224 416c124 0 224 -103 224 -230c0 -101 -64 -188 -153 -218h-4c-8 0 -12 7 -12 12c0 8 1 31 1 62c0 21 -8 36 -16 43c50 6 103 25 103 113c0 25 -9 46 -23 62c2 6 10 29 -2 61h-5c-8 0 -27 -3 -57 -24c-18 5 -37 8 -56 8s-38 -3 -56 -8c-30 21 -49 24 -57 24h-5
c-12 -32 -4 -55 -2 -61c-14 -16 -23 -37 -23 -62c0 -88 52 -107 102 -113c-6 -6 -12 -16 -14 -31c-6 -3 -16 -6 -26 -6c-13 0 -28 5 -39 25c0 0 -13 22 -35 24v0c-2 0 -21 0 -1 -14c0 0 15 -8 25 -34c0 0 10 -33 53 -33c7 0 14 0 22 2v-39c0 -5 -3 -11 -11 -11h-4
c-89 30 -153 116 -153 218c0 127 100 230 224 230zM146 -0c-15 0 -28 4 -38 9c14 -10 28 -17 44 -23v6v8h-6zM157 73c-16 4 -35 10 -52 24c6 -6 11 -11 13 -16c7 -12 14 -17 25 -17c4 0 9 1 12 2c1 2 1 5 2 7zM347 14c17 13 32 28 45 46c26 37 40 80 40 126
c0 29 -5 58 -16 84c-10 25 -26 48 -45 68s-41 34 -66 45c-26 11 -53 17 -81 17s-55 -6 -81 -17c-25 -11 -47 -25 -66 -45s-35 -42 -45 -68c-11 -26 -16 -55 -16 -84c0 -46 14 -89 40 -126c10 -14 22 -27 35 -38c-7 8 -11 16 -13 22c-7 18 -15 24 -17 25h-2v1
c-5 3 -20 13 -15 28c3 9 12 15 25 15h1v0v0c13 -1 24 -6 32 -13c-21 19 -37 48 -37 98c0 24 7 47 21 66c-3 13 -6 34 5 62l3 8l7 2c2 0 5 1 10 1c12 0 31 -3 60 -22c17 4 35 6 53 6v0v0c18 0 36 -2 53 -6c29 19 48 22 60 22c5 0 8 -1 10 -1l7 -2l3 -7c11 -27 8 -50 5 -63
c14 -19 21 -41 21 -66c0 -92 -55 -117 -92 -125c3 -8 5 -18 5 -30v-51v-6c18 7 35 16 51 28z" />
    <glyph glyph-name="ion-social-github" unicode="&#xf233;" 
d="M224 416c124 0 224 -103 224 -230c0 -101 -64 -188 -153 -218h-4c-8 0 -12 7 -12 12c0 8 1 31 1 62c0 21 -8 36 -16 43c50 6 103 25 103 113c0 25 -9 46 -23 62c2 6 10 29 -2 61h-5c-8 0 -27 -3 -57 -24c-18 5 -37 8 -56 8s-38 -3 -56 -8c-30 21 -49 24 -57 24h-5
c-12 -32 -4 -55 -2 -61c-14 -16 -23 -37 -23 -62c0 -88 52 -107 102 -113c-6 -6 -12 -16 -14 -31c-6 -3 -16 -6 -26 -6c-13 0 -28 5 -39 25c0 0 -13 22 -35 24v0c-2 0 -21 0 -1 -14c0 0 15 -8 25 -34c0 0 10 -33 53 -33c7 0 14 0 22 2v-39c0 -5 -3 -11 -11 -11h-4
c-89 30 -153 116 -153 218c0 127 100 230 224 230z" />
    <glyph glyph-name="ion-social-google-outline" unicode="&#xf34e;" horiz-adv-x="256" 
d="M191 366c12 -10 37 -30 37 -68c0 -37 -21 -55 -43 -72c-7 -7 -15 -13 -15 -24s8 -17 14 -22l18 -14c23 -19 43 -36 43 -71c0 -47 -47 -95 -135 -95c-74 0 -110 35 -110 72c0 18 10 44 40 62c32 19 75 21 98 23c-7 9 -16 18 -16 34c0 9 2 14 5 20c-6 0 -11 -1 -16 -1
c-54 0 -85 40 -85 79c0 23 11 48 33 67c29 24 63 28 91 28h106l-33 -18h-32zM155 142c-4 1 -7 1 -12 1s-32 -1 -54 -8c-11 -4 -44 -16 -44 -52s36 -62 91 -62c49 0 75 24 75 55c0 26 -17 39 -56 66zM170 238c12 12 13 28 13 37c0 36 -22 92 -65 92c-13 0 -28 -6 -36 -16
c-9 -11 -11 -25 -11 -38c0 -34 20 -89 64 -89c13 0 27 6 35 14z" />
    <glyph glyph-name="ion-social-google" unicode="&#xf34f;" horiz-adv-x="288" 
d="M210 172c22 -18 45 -36 45 -73c0 -49 -48 -99 -140 -99c-80 0 -115 39 -115 77c0 10 3 42 42 65c27 16 61 20 85 22c-4 7 -8 16 -8 27c0 4 0 7 1 10h-4c-19 0 -46 4 -67 26c-15 15 -24 36 -24 57c0 26 13 53 35 71v0c32 25 70 29 95 29h133l-60 -33h-13
c11 -13 23 -31 23 -58c0 -40 -25 -59 -45 -74v-1c-6 -6 -11 -10 -11 -17c0 -6 4 -10 10 -15v0zM85 308c0 -13 4 -33 14 -51c7 -12 20 -27 41 -27c10 0 21 4 28 11c10 10 10 25 10 30c0 18 -6 38 -15 54c-7 13 -20 27 -40 27c-11 0 -22 -5 -29 -13c-6 -7 -9 -18 -9 -31z
M206 80c0 20 -13 31 -50 56c-3 0 -4 1 -8 1c-6 0 -32 -2 -51 -8c-16 -6 -37 -16 -37 -42c0 -31 32 -51 80 -51c41 0 66 17 66 44z" />
    <glyph glyph-name="ion-social-googleplus-outline" unicode="&#xf234;" 
d="M192 366c12 -10 36 -30 36 -68c0 -37 -21 -55 -43 -72c-7 -7 -15 -13 -15 -24s8 -18 14 -22l18 -14c23 -19 43 -36 43 -71c0 -47 -47 -95 -135 -95c-74 0 -110 35 -110 72c0 18 10 44 40 62c32 19 75 21 98 23c-7 9 -16 18 -16 34c0 9 3 14 5 20c-6 0 -11 -1 -16 -1
c-54 0 -85 40 -85 79c0 23 10 48 32 67c29 24 64 28 92 28h106l-33 -18h-31zM155 142c-4 0 -7 1 -12 1s-32 -1 -54 -8c-11 -4 -44 -16 -44 -52s36 -62 91 -62c49 0 75 24 75 55c0 26 -17 39 -56 66zM170 238c12 12 13 28 13 37c0 36 -22 92 -65 92c-13 0 -28 -6 -36 -16
c-9 -11 -11 -24 -11 -37c0 -34 20 -90 64 -90c13 0 27 6 35 14zM448 306v-18h-78v-81h-18v81h-80v18h80v78h18v-78h78z" />
    <glyph glyph-name="ion-social-googleplus" unicode="&#xf235;" 
d="M210 172c22 -18 45 -36 45 -73c0 -49 -47 -99 -139 -99c-80 0 -116 39 -116 77c0 10 3 42 42 65c27 16 61 21 85 23c-4 7 -8 15 -8 26c0 4 0 7 1 10h-4c-19 0 -46 4 -67 26c-15 15 -24 36 -24 57c0 26 13 53 35 71v0c32 25 69 29 94 29h134l-60 -33h-13
c11 -13 23 -31 23 -58c0 -40 -25 -59 -45 -74v-1c-6 -6 -11 -10 -11 -17c0 -6 4 -10 10 -15v0zM85 308c0 -13 4 -33 14 -51c7 -12 21 -27 41 -27c10 0 21 4 28 11c10 10 10 25 10 30c0 18 -6 37 -15 53c-8 13 -20 28 -40 28c-11 0 -23 -5 -29 -13c-6 -7 -9 -18 -9 -31z
M206 80c0 20 -13 31 -50 56c-3 0 -4 1 -8 1c-6 0 -31 -2 -50 -8c-16 -6 -38 -16 -38 -42c0 -31 32 -51 80 -51c41 0 66 17 66 44zM370 306h78v-34h-78v-81h-34v81h-80v34h80v78h34v-78z" />
    <glyph glyph-name="ion-social-html5-outline" unicode="&#xf4e2;" horiz-adv-x="384" 
d="M0 416h384l-35 -403l-157 -45l-157 45zM319 37l30 347h-314l30 -347l127 -36zM84 184l-13 150h241l-4 -50h-184l4 -51h176l-14 -151l-98 -28l-99 28l-6 77h48l3 -39l54 -15l53 15l6 64h-167z" />
    <glyph glyph-name="ion-social-html5" unicode="&#xf4e3;" horiz-adv-x="384" 
d="M0 416h384l-35 -403l-157 -45l-157 45zM308 284l4 50h-241l13 -150h167l-6 -64l-53 -15l-54 15l-3 39h-48l6 -78l99 -27l98 28l14 151h-176l-4 51h184z" />
    <glyph glyph-name="ion-social-javascript-outline" unicode="&#xf4e4;" 
d="M160 344h-48v-196c0 -30 -6 -50 -17 -64c-11 -13 -26 -20 -48 -20c-9 0 -18 1 -25 2l-4 -30c11 -2 25 -4 37 -4c34 0 59 8 76 25c19 18 29 48 29 90v197zM176 360v0v-213c0 -97 -49 -131 -121 -131c-18 0 -40 3 -55 8l8 62c10 -4 24 -6 39 -6c31 0 49 15 49 68v212h80z
M350 352c-34 0 -62 -9 -82 -26c-19 -15 -28 -36 -28 -60c0 -20 7 -36 21 -51c14 -14 34 -26 61 -36c23 -8 38 -15 48 -24c12 -11 18 -23 18 -38c0 -16 -7 -31 -20 -40c-12 -9 -28 -14 -48 -14c-28 0 -52 8 -70 15l-7 -32c18 -8 44 -14 72 -14c38 0 70 9 90 27
c18 16 27 38 27 63c0 21 -5 36 -17 50s-31 27 -58 37v0v0c-38 15 -72 28 -72 63c0 14 7 27 19 36c11 9 26 13 45 13c24 0 43 -5 57 -11l10 32c-19 6 -42 10 -66 10zM350 368v0c38 0 65 -7 85 -16l-19 -64c-13 7 -35 17 -67 17s-48 -16 -48 -33c0 -22 19 -31 62 -48
c58 -22 85 -53 85 -102c0 -57 -42 -106 -133 -106c-38 0 -72 10 -91 21l15 63v0c20 -11 49 -21 81 -21c34 0 52 15 52 38c0 21 -15 33 -55 47c-55 20 -93 52 -93 102c0 58 49 102 126 102z" />
    <glyph glyph-name="ion-social-javascript" unicode="&#xf4e5;" 
d="M176 360v0v-213c0 -97 -49 -131 -121 -131c-18 0 -40 3 -55 8l8 62c10 -4 24 -6 39 -6c31 0 49 15 49 68v212h80zM350 368v0c38 0 65 -7 85 -16l-19 -64c-13 7 -35 17 -67 17s-48 -16 -48 -33c0 -22 19 -31 62 -48c58 -22 85 -53 85 -102c0 -57 -42 -106 -133 -106
c-38 0 -72 10 -91 21l15 63v0c20 -11 49 -21 81 -21c34 0 52 15 52 38c0 21 -15 33 -55 47c-55 20 -93 52 -93 102c0 58 49 102 126 102z" />
    <glyph glyph-name="ion-social-markdown" unicode="&#xf4e6;" 
d="M416 352c18 0 32 -14 32 -32v-256c0 -18 -14 -32 -32 -32h-384c-18 0 -32 14 -32 32v256c0 18 14 32 32 32h384zM252 96v0v192h-56l-42 -68l-42 68h-56v-192h56v96l42 -54l42 54v-96h56zM336 96v0l70 96h-42v96h-56v-96h-42z" />
    </font>
</defs>
</svg>
